<?xml version="1.0" encoding="utf-8"?>
<!-- Generator: Adobe Illustrator 17.0.0, SVG Export Plug-In . SVG Version: 6.00 Build 0)  -->
<!DOCTYPE svg PUBLIC "-//W3C//DTD SVG 1.1//EN" "http://www.w3.org/Graphics/SVG/1.1/DTD/svg11.dtd">
<svg version="1.1" id="Layer_1" xmlns="http://www.w3.org/2000/svg" xmlns:xlink="http://www.w3.org/1999/xlink" x="0px" y="0px"
	 width="407.973px" height="298.178px" viewBox="0 0 407.973 298.178" enable-background="new 0 0 407.973 298.178"
	 xml:space="preserve">
<path fill="#022169" d="M77.405,154.02h22.011v-11.015H77.405V154.02z M187.446,66.007h-11.015V88.01h11.015V66.007z
	 M132.434,110.036h10.987V77.018h11.008v44.021h-33.006V66.007h-11.011v55.032H99.416V66.007H88.421v55.032H77.405V66.007H44.42
	v44.029h21.99v11.003H33.421V66.007H0.419v66.015h165.008V66.007h-32.994V110.036z M22.413,121.039H11.403V77.018h11.011V121.039z
	 M66.41,98.992H55.42V77.018H66.41V98.992z M198.441,110.036h22.006v11.003h-33.001V98.992h-11.015v33.03h55.004V66.007h-32.994
	V110.036z M209.448,77.018h10.999v21.975h-10.999V77.018z M242.454,110.036h21.998v11.003h-21.998v10.983h32.993V66.007h-32.993
	V110.036z M253.441,77.018h11.011v21.975h-11.011V77.018z M341.466,66.007h-11.011v11.011h11.011V66.007z M374.459,66.007v55.032
	h-10.987V66.007h-11.016v55.032h-10.991v-33.03h-11.012v33.03h-10.991V66.007h-33.005v44.029h11.002V77.018h11v44.021h-22.002
	v10.983h121.015V66.007H374.459z M396.462,121.039h-10.995V77.018h10.995V121.039z M66.41,44.013H55.42v10.992H66.41V44.013z
	 M154.428,44.013h-11.008v10.992h11.008V44.013z"/>
<polygon fill="#6CC04A" points="407.473,198.017 407.473,187.059 11.415,187.059 11.415,176.023 407.473,176.023 407.473,143.006 
	110.411,143.006 110.411,154.02 396.463,154.02 396.463,165.02 0.42,165.02 0.424,198.017 "/>
<rect x="0.42" y="143.005" fill="#6CC04A" width="65.991" height="11.015"/>
<polygon fill="#6CC04A" points="0.42,0 407.473,0 407.473,32.998 11.414,32.998 11.414,44.012 44.42,44.012 44.42,55.004 
	0.42,55.004 0.423,21.999 396.462,21.999 396.462,10.991 0.42,10.991 "/>
<rect x="77.405" y="44.013" fill="#6CC04A" width="55.028" height="10.992"/>
<rect x="165.427" y="44.012" fill="#6CC04A" width="242.046" height="10.992"/>
<path fill="#022169" d="M228.173,260.3v-3.145c-0.407,0.882-1.055,1.575-1.921,2.09c-0.846,0.442-1.759,0.684-2.766,0.684
	c-1.937,0-3.519-0.684-4.755-2.049c-1.152-1.348-1.743-2.999-1.743-4.948c0-1.924,0.615-3.487,1.864-4.699
	c1.24-1.211,2.822-1.815,4.754-1.815c1.82,0,3.313,0.877,4.481,2.625c0.29-0.741,0.644-1.522,1.051-2.283h2.762l1.054-0.028v0.165
	c-0.728,0.156-1.179,0.842-1.336,2.074c-0.049,0.242-0.073,1.151-0.073,2.673v7.243h2.831v1.413H228.173z M219.033,242.707
	c0-0.56,0.177-1.031,0.58-1.401c0.367-0.378,0.842-0.571,1.401-0.571c0.556,0,1.035,0.193,1.402,0.571
	c0.37,0.362,0.575,0.841,0.575,1.401c0,0.571-0.204,1.014-0.575,1.377c-0.387,0.362-0.854,0.536-1.402,0.536
	c-0.567,0-1.047-0.173-1.421-0.536C219.211,243.721,219.033,243.278,219.033,242.707 M220.133,253.279
	c0,1.482,0.315,2.657,0.934,3.582c0.733,1.116,1.804,1.684,3.205,1.684c1.385,0,2.444-0.568,3.16-1.67
	c0.58-0.91,0.89-2.091,0.89-3.595c0-1.527-0.31-2.746-0.918-3.665c-0.704-1.127-1.767-1.663-3.177-1.663
	c-1.41,0-2.46,0.536-3.172,1.691C220.439,250.582,220.133,251.781,220.133,253.279 M224.006,242.707c0-0.56,0.209-1.031,0.596-1.401
	c0.358-0.378,0.845-0.571,1.401-0.571c0.576,0,1.026,0.193,1.401,0.571c0.403,0.362,0.588,0.841,0.588,1.401
	c0,0.571-0.218,1.014-0.588,1.377c-0.386,0.362-0.854,0.536-1.401,0.536c-0.556,0-1.043-0.173-1.433-0.536
	C224.191,243.721,224.006,243.278,224.006,242.707"/>
<path fill="#022169" d="M240.239,253.19c0-2.045,0.716-3.712,2.166-4.976c1.348-1.171,3.072-1.767,5.149-1.767
	c2.146,0,3.865,0.617,5.178,1.856c1.393,1.252,2.098,2.915,2.098,5.004c0,2.013-0.673,3.685-2.025,4.956
	c-0.258,0.25-0.548,0.459-0.81,0.625h4.775v1.413h-22.864v-1.413h9.192c-0.314-0.166-0.588-0.431-0.85-0.673
	C240.916,256.923,240.239,255.244,240.239,253.19 M243.331,253.267c0,2.737,0.644,4.613,1.925,5.62h4.691
	c1.252-1.007,1.872-2.895,1.872-5.609c0-1.739-0.258-3.156-0.826-4.235c-0.712-1.414-1.883-2.146-3.454-2.146
	c-1.51,0-2.653,0.732-3.39,2.146C243.605,250.179,243.331,251.568,243.331,253.267 M245.316,241.865
	c0-0.519,0.221-0.998,0.592-1.368c0.375-0.371,0.85-0.56,1.393-0.56c0.58,0,1.039,0.189,1.426,0.548
	c0.369,0.374,0.587,0.833,0.587,1.381c0,0.568-0.218,1.035-0.587,1.413c-0.387,0.355-0.846,0.532-1.426,0.532
	c-0.559,0-1.043-0.177-1.397-0.532C245.537,242.9,245.316,242.433,245.316,241.865"/>
<path fill="#022169" d="M266.106,258.888h2.315v1.413h-12.094v-1.413h6.53v-8.249c0-0.995-0.056-1.651-0.181-1.973
	c-0.193-0.604-0.688-0.939-1.457-0.975v-0.238c1.921-0.254,3.616-0.616,5.073-1.054c-0.129,1.727-0.186,3.554-0.186,5.431V258.888z
	 M257.466,263.763c0-0.58,0.214-1.027,0.6-1.409c0.371-0.37,0.858-0.548,1.405-0.548c0.572,0,1.031,0.177,1.401,0.548
	c0.391,0.382,0.568,0.829,0.568,1.409c0,0.528-0.177,0.986-0.568,1.377c-0.387,0.33-0.85,0.556-1.401,0.556
	c-0.563,0-1.034-0.225-1.413-0.556C257.681,264.769,257.466,264.318,257.466,263.763 M262.068,263.763
	c0-0.58,0.165-1.027,0.576-1.409c0.375-0.37,0.858-0.548,1.389-0.548c0.552,0,1.031,0.177,1.414,0.548
	c0.374,0.382,0.555,0.829,0.555,1.409c0,0.528-0.181,0.986-0.555,1.377c-0.383,0.33-0.87,0.556-1.414,0.556
	c-0.572,0-1.03-0.225-1.401-0.556C262.233,264.769,262.068,264.318,262.068,263.763"/>
<path fill="#022169" d="M273.559,258.887h5.721v1.413h-11.366v-1.413h2.98v-18.508c0-0.958-0.049-1.594-0.161-1.897
	c-0.21-0.596-0.689-0.917-1.418-0.946v-0.233c1.288-0.101,2.754-0.471,4.397-1.038c-0.1,1.533-0.153,3.35-0.153,5.394V258.887z"/>
<path fill="#022169" d="M292.96,260.735l-0.552,0.282c-0.455-0.217-0.889-0.491-1.3-0.717h-16.306v-1.413h14.712
	c-1.087-1.245-1.739-2.822-1.989-4.759c-0.375-3.281-0.866-5.287-1.55-6.019c-0.52-0.595-1.072-0.878-1.611-0.878
	c-0.657,0-1.155,0.283-1.506,0.894c-0.262,0.435-0.383,1.046-0.415,1.8l-0.169,0.06l-2.346-2.754
	c0.258-0.112,0.616-0.237,1.014-0.346c1.171-0.301,2.279-0.467,3.317-0.467c1.16,0,2.247,0.186,3.266,0.515
	c1.393,0.508,2.295,1.555,2.713,3.314c0.23,1.751,0.488,3.519,0.725,5.239C291.281,257.764,291.953,259.504,292.96,260.735
	 M281.438,242.408c0-0.564,0.194-1.055,0.58-1.413c0.386-0.391,0.841-0.548,1.401-0.548c0.563,0,1.043,0.157,1.413,0.548
	c0.387,0.358,0.568,0.849,0.568,1.413c0,0.548-0.189,0.99-0.576,1.369c-0.403,0.362-0.858,0.52-1.405,0.52
	c-0.56,0-1.043-0.157-1.41-0.52C281.623,243.399,281.438,242.956,281.438,242.408"/>
<path fill="#022169" d="M310.168,258.887h14.965c1.623,0,2.424-0.761,2.424-2.279v-2.992c-0.379,0.902-1.03,1.595-1.912,2.087
	c-0.833,0.466-1.763,0.692-2.77,0.692c-1.941,0-3.511-0.665-4.726-2.081c-1.176-1.3-1.755-2.951-1.755-4.896
	c0-1.944,0.604-3.49,1.86-4.711c1.221-1.227,2.826-1.828,4.759-1.828c1.811,0,3.309,0.897,4.473,2.649
	c0.29-0.745,0.636-1.554,1.071-2.287l2.717-0.02l1.092-0.041v0.197c-0.737,0.157-1.18,0.841-1.365,2.025
	c-0.025,0.262-0.045,1.2-0.045,2.722v8.366c0,2.512-1.618,3.809-4.851,3.809h-18.19c-2.517,0-4.413-0.242-5.701-0.72
	c-1.578-0.576-2.504-1.554-2.79-2.871c-0.06-0.286-0.08-0.56-0.08-0.833c0-1.365,0.725-2.609,2.166-3.753
	c1.385-1.115,2.665-1.875,3.824-2.363c1.328-0.527,2.807-0.789,4.417-0.773c1.28,0.008,2.456,0.185,3.539,0.459l-0.412,3.487
	l-0.261,0.04c-0.495-1.256-1.313-2.126-2.46-2.698c-0.753-0.289-1.418-0.435-2.07-0.435c-1.353,0-2.609,0.661-3.804,1.941
	c-0.958,1.015-1.402,2.211-1.402,3.519c0,0.878,0.258,1.574,0.818,2.061c0.624,0.58,1.22,0.901,1.739,1.026
	C306.778,258.73,308.352,258.887,310.168,258.887 M318.417,238.688c0-0.587,0.18-1.038,0.559-1.409
	c0.387-0.362,0.858-0.556,1.418-0.556c0.552,0,1.027,0.194,1.393,0.556c0.383,0.371,0.564,0.822,0.564,1.409
	c0,0.548-0.181,0.999-0.564,1.337c-0.374,0.394-0.854,0.559-1.393,0.559c-0.58,0-1.039-0.165-1.418-0.559
	C318.598,239.704,318.417,239.256,318.417,238.688 M319.54,249.74c0,1.453,0.302,2.669,0.93,3.603
	c0.733,1.135,1.796,1.691,3.197,1.691c1.389,0,2.444-0.556,3.153-1.691c0.595-0.906,0.893-2.118,0.893-3.603
	c0-1.526-0.298-2.746-0.893-3.635c-0.717-1.144-1.788-1.7-3.193-1.7c-1.405,0-2.455,0.564-3.176,1.707
	C319.842,247.055,319.54,248.303,319.54,249.74 M323.389,238.688c0-0.587,0.197-1.038,0.568-1.409
	c0.407-0.362,0.866-0.556,1.425-0.556c0.556,0,1.027,0.194,1.409,0.556c0.387,0.371,0.572,0.822,0.572,1.409
	c0,0.548-0.194,0.999-0.572,1.337c-0.402,0.394-0.885,0.559-1.409,0.559c-0.571,0-1.038-0.165-1.425-0.559
	C323.587,239.704,323.389,239.256,323.389,238.688"/>
<path fill="#022169" d="M335.801,264.914l1.175-3.584h0.218c0.66,3.125,2.359,4.711,5.04,4.711c3.845,0,5.753-3.052,5.753-9.119
	v-0.254c-0.99,2.48-2.935,3.733-5.818,3.733c-1.791,0-3.357-0.5-4.666-1.429c-1.482-1.023-2.227-2.4-2.227-4.163
	c0-2.037,0.774-3.664,2.344-4.824c1.405-1.087,3.177-1.663,5.287-1.663c2.628,0,4.714,0.808,6.232,2.452
	c1.454,1.602,2.182,3.736,2.182,6.381c0,2.863-0.797,5.15-2.44,6.873c-1.638,1.755-3.913,2.625-6.768,2.625
	C340.049,266.654,337.951,266.078,335.801,264.914 M347.61,254.362c0-1.534-0.354-2.757-1.042-3.752
	c-0.81-1.083-1.912-1.639-3.354-1.639c-1.554,0-2.738,0.555-3.519,1.667c-0.669,0.979-1.03,2.294-1.03,3.921
	c0,1.445,0.379,2.649,1.119,3.567c0.83,1.022,1.932,1.521,3.354,1.521c1.405,0,2.528-0.539,3.362-1.622
	C347.248,257.031,347.61,255.807,347.61,254.362"/>
<path fill="#022169" d="M366.883,258.887h8.18v1.413h-18.91c-0.994,0-1.59-0.781-1.723-2.275c0.514,0.596,1.027,0.862,1.538,0.862
	h6.837c1.864,0,2.919-1.292,3.12-3.889c-0.137-1.761-0.539-3.382-1.224-4.876c-0.918-2.005-2.098-3.011-3.588-3.011
	c-0.483,0-0.966,0.185-1.462,0.519c-0.507,0.35-0.853,0.74-1.054,1.172c-0.221,0.507-0.358,1.038-0.358,1.65
	c0,0.656,0.137,1.164,0.358,1.458c0.435,0.575,0.657,0.861,0.684,0.918c-0.056,0.048-0.241,0.088-0.563,0.104h-1.168
	c-0.563,0-1.582,0.041-3.047,0.113v-0.217c0.532-0.177,0.877-0.355,1.066-0.665c0.198-0.253,0.302-0.664,0.302-1.203v-0.624
	c0-0.495-0.04-1.026-0.051-1.534c1.457-1.506,3.277-2.247,5.414-2.247c2.138,0,3.975,0.87,5.484,2.553
	c1.473,1.666,2.226,3.543,2.226,5.692C368.944,256.5,368.243,257.881,366.883,258.887"/>
<path fill="#022169" d="M383.449,258.888h2.195v1.413h-11.011v-1.413h5.572v-8.25c0-0.994-0.069-1.651-0.165-1.973
	c-0.209-0.605-0.688-0.939-1.486-0.974v-0.237c1.961-0.254,3.64-0.616,5.073-1.055c-0.121,1.727-0.177,3.556-0.177,5.431V258.888z
	 M376.01,242.658c0-0.548,0.189-1.006,0.572-1.409c0.395-0.342,0.861-0.528,1.401-0.528c0.572,0,1.043,0.185,1.413,0.528
	c0.387,0.378,0.572,0.849,0.572,1.409c0,0.556-0.185,1.015-0.572,1.386c-0.402,0.353-0.853,0.539-1.413,0.539
	c-0.556,0-1.027-0.186-1.405-0.539C376.199,243.688,376.01,243.222,376.01,242.658"/>
<path fill="#022169" d="M385.137,260.301v-1.413h6.736v-7.984c0-1.233-0.024-1.997-0.096-2.219
	c-0.165-0.773-0.657-1.211-1.482-1.232v-0.221c1.208-0.169,2.572-0.483,4.062-1.039v4.767c0.902-3.048,2.867-4.562,5.903-4.562
	c2.105,0,3.643,0.624,4.601,1.924c0.781,1.108,1.188,2.786,1.188,5.02v1.217c0,1.864,0.012,2.958,0.08,3.269
	c0.194,1.257,0.793,2.053,1.771,2.327c0.137,0.089,0.081,0.145-0.169,0.145H385.137z M403.882,258.887
	c-0.339-0.362-0.508-0.862-0.6-1.418v-3.901c0-1.788-0.229-3.108-0.644-3.977c-0.599-1.168-1.707-1.825-3.313-1.934
	c-2.388,0.145-3.861,1.652-4.413,4.465c-0.177,0.882-0.25,3.128-0.25,6.764H403.882z"/>
<path fill="#022169" d="M19.265,258.887v1.413H5.995c-1.899,0.532-2.85,1.811-2.85,3.84c0,1.116,0.367,2.114,1.111,3.08
	c0.809,1.027,1.738,1.555,2.814,1.555c3.434,0,5.5-1.447,6.188-4.321h0.19l1.167,2.718c-2.544,1.453-5.165,2.198-7.847,2.198
	c-1.815,0-3.357-0.487-4.621-1.429C0.721,266.92,0,265.519,0,263.763c0-2.649,1.221-4.259,3.624-4.791
	c-2.081-1.192-3.137-3.096-3.137-5.629c0-2.076,0.701-3.751,2.118-5c1.329-1.191,3.056-1.807,5.174-1.807
	c1.993,0,3.744,0.507,5.246,1.513l-0.649,3.781l-0.188-0.007c-0.814-2.939-2.191-4.416-4.087-4.416c-1.441,0-2.669,0.656-3.66,1.936
	c-0.929,1.192-1.385,2.548-1.385,4.002c0,1.978,0.918,3.834,2.742,5.545H19.265z"/>
<path fill="#022169" d="M18.806,258.888h8.322c-0.568-0.527-0.93-1.164-1.091-1.849c-0.081-0.431-0.149-1.224-0.149-2.403v-3.997
	c0-0.995-0.049-1.651-0.149-1.973c-0.226-0.604-0.717-0.939-1.486-0.975v-0.238c1.944-0.254,3.616-0.616,5.073-1.054
	c-0.137,1.727-0.19,3.554-0.19,5.431v2.298c0,1.877,0.052,3.027,0.117,3.418c0.218,1.417,0.841,2.287,1.832,2.609l-0.028,0.145
	H18.806V258.888z M18.85,263.763c0-0.58,0.197-1.027,0.592-1.409c0.371-0.37,0.842-0.548,1.385-0.548
	c0.572,0,1.043,0.177,1.421,0.548c0.403,0.382,0.588,0.829,0.588,1.409c0,0.528-0.185,0.986-0.588,1.377
	c-0.378,0.33-0.849,0.556-1.421,0.556c-0.559,0-1.043-0.225-1.385-0.556C19.048,264.769,18.85,264.318,18.85,263.763
	 M23.445,263.763c0-0.58,0.177-1.027,0.571-1.409c0.387-0.37,0.846-0.548,1.401-0.548c0.568,0,1.03,0.177,1.401,0.548
	c0.399,0.382,0.584,0.829,0.584,1.409c0,0.528-0.185,0.986-0.584,1.377c-0.382,0.33-0.842,0.556-1.401,0.556
	c-0.556,0-1.031-0.225-1.401-0.556C23.622,264.769,23.445,264.318,23.445,263.763"/>
<path fill="#022169" d="M38.164,259.157v-5.878c0-0.979-0.044-1.634-0.153-1.916c-0.201-0.596-0.673-0.902-1.417-0.966v-0.217
	c1.312-0.129,2.761-0.459,4.4-1.047c-0.136,1.788-0.145,3.914-0.088,6.337c0.088,2.42,0.064,3.913-0.007,4.412
	c0.007,1.651-0.375,3.028-1.124,4.035c-1.296,1.546-2.641,2.239-4.042,2.141c-1.409-0.144-2.5-0.684-3.273-1.602l0.809-2.979h0.197
	c0.508,2.504,1.301,3.744,2.404,3.744C37.362,265.22,38.152,263.183,38.164,259.157"/>
<path fill="#022169" d="M43.675,260.3l-0.024-0.145c0.934-0.274,1.517-1.046,1.731-2.275c0.076-0.422,0.141-1.457,0.141-3.12
	v-14.381c0-0.958-0.064-1.594-0.173-1.896c-0.189-0.596-0.688-0.918-1.425-0.947v-0.233c1.304-0.101,2.774-0.472,4.388-1.038
	c-0.097,1.521-0.141,3.325-0.129,5.394v17.228h6.406v1.413h-7.63H43.675z"/>
<path fill="#022169" d="M83.433,258.887v1.413h-0.789c-1.88,0-3.233-0.543-4.055-1.569c-0.933,1.151-2.274,1.69-4.046,1.642
	c-2.242-0.073-3.679-1.41-4.323-3.961c-0.209,0.942-0.548,1.691-1.015,2.31c-0.91,1.16-2.271,1.715-4.087,1.651
	c-2.226-0.073-3.684-1.369-4.34-3.881c-0.221,0.869-0.539,1.635-0.994,2.23c-0.81,1.035-2.178,1.578-4.095,1.578h-1.538v-1.413
	h1.494c1.372-0.197,2.218-0.909,2.557-2.041c0.129-0.49,0.209-1.985,0.209-4.586c0-2.219-0.56-3.507-1.691-3.868v-0.217
	c0.857,0.06,1.856,0.081,2.983,0.081c1.264,0,2.287-0.021,3.076-0.081l0.005,0.217c-0.753,0.225-1.248,0.789-1.498,1.711
	c-0.137,0.495-0.194,1.288-0.194,2.412v1.586c0.045,1.268,0.286,2.334,0.754,3.18c0.583,1.087,1.461,1.606,2.64,1.606
	c0.193,0,0.375,0,0.596-0.012c1.378-0.186,2.206-0.898,2.529-2.03c0.129-0.49,0.201-1.985,0.201-4.586
	c0-2.219-0.548-3.507-1.675-3.868v-0.217c0.893,0.06,1.86,0.081,2.999,0.081c1.26,0,2.274-0.021,3.063-0.081l0.013,0.217
	c-0.757,0.225-1.265,0.789-1.498,1.711c-0.136,0.495-0.197,1.288-0.197,2.412v1.586c0.036,1.268,0.294,2.334,0.757,3.18
	c0.592,1.087,1.454,1.606,2.617,1.606c0.19,0,0.395,0,0.604-0.012c1.365-0.186,2.222-0.898,2.544-2.03
	c0.125-0.49,0.185-1.985,0.185-4.586c0-2.226-0.556-3.526-1.683-3.868l0.024-0.217c1.048,0.06,2.09,0.081,3.177,0.081
	c1.063,0,2.021-0.021,2.87-0.081l0.032,0.217c-1.132,0.343-1.703,1.642-1.703,3.868v0.93c0,1.973,0.081,3.165,0.201,3.655
	c0.306,1.132,1.168,1.844,2.568,2.041H83.433z M64.522,243.975c0-0.528,0.202-1.019,0.588-1.365
	c0.394-0.374,0.846-0.547,1.402-0.547c0.559,0,1.026,0.173,1.413,0.547c0.387,0.346,0.567,0.838,0.567,1.365
	c0,0.575-0.197,1.035-0.567,1.405c-0.394,0.363-0.854,0.532-1.413,0.532c-0.556,0-1.031-0.169-1.418-0.519
	C64.708,245.009,64.522,244.571,64.522,243.975 M66.833,239.615c0-0.548,0.197-1.007,0.584-1.393
	c0.379-0.354,0.854-0.572,1.41-0.572c0.559,0,1.03,0.189,1.405,0.572c0.394,0.35,0.579,0.845,0.579,1.393
	c0,0.58-0.185,1.007-0.591,1.38c-0.37,0.351-0.834,0.556-1.393,0.556c-0.556,0-1.031-0.205-1.41-0.548
	C67.03,240.653,66.833,240.195,66.833,239.615 M69.506,243.975c0-0.528,0.205-1.019,0.588-1.365
	c0.375-0.374,0.853-0.547,1.417-0.547s1.043,0.173,1.409,0.547c0.379,0.346,0.572,0.838,0.572,1.365c0,0.575-0.21,1.035-0.58,1.405
	c-0.387,0.363-0.861,0.532-1.401,0.532c-0.564,0-1.042-0.169-1.417-0.519C69.712,245.009,69.506,244.571,69.506,243.975"/>
<path fill="#022169" d="M99.485,258.887h2.814v1.413h-3.64c-0.189,0.225-0.411,0.471-0.673,0.717
	c-1.332,1.288-3.107,1.904-5.322,1.904c-2.129,0-3.857-0.632-5.205-1.924c-0.221-0.234-0.443-0.471-0.636-0.697h-3.845v-1.413h3.031
	c-0.358-0.862-0.559-1.856-0.559-2.923c0-2.04,0.716-3.704,2.157-4.972c1.349-1.152,3.064-1.759,5.142-1.759
	c2.138,0,3.865,0.607,5.193,1.816c1.373,1.272,2.082,2.951,2.082,5.033C100.024,257.144,99.838,258.066,99.485,258.887
	 M88.537,256.041c0,1.751,0.274,3.149,0.846,4.26c0.716,1.429,1.856,2.134,3.45,2.134c1.546,0,2.665-0.705,3.377-2.134
	c0.548-1.111,0.826-2.509,0.826-4.26c0-1.747-0.278-3.164-0.826-4.219c-0.732-1.425-1.884-2.141-3.462-2.141
	c-1.53,0-2.649,0.716-3.366,2.149C88.811,252.933,88.537,254.362,88.537,256.041"/>
<path fill="#022169" d="M101.872,258.887h3.93c-0.842-0.451-1.248-1.469-1.248-3.012v-15.496c0-0.958-0.049-1.594-0.149-1.897
	c-0.19-0.596-0.689-0.917-1.429-0.946v-0.233c1.308-0.101,2.754-0.471,4.376-1.038c-0.081,1.574-0.125,3.398-0.125,5.394v12.977
	c0,1.28,0.044,2.355,0.177,3.192c0.209,1.257,0.729,2.074,1.562,2.472h-7.093V258.887z"/>
<path fill="#022169" d="M111.003,260.373l-0.024-0.217c0.926-0.274,1.51-1.046,1.72-2.275c0.089-0.422,0.116-1.457,0.116-3.12
	v-14.381c0-0.958-0.048-1.594-0.161-1.896c-0.197-0.596-0.676-0.917-1.433-0.946v-0.233c1.32-0.1,2.766-0.471,4.409-1.039
	c-0.117,1.574-0.161,3.398-0.141,5.395v12.976c0.093,1.828,0.149,2.882,0.189,3.193c0.19,1.293,0.781,2.073,1.699,2.327v0.217
	c-1.054-0.048-2.094-0.072-3.1-0.072C112.955,260.3,111.873,260.324,111.003,260.373"/>
<path fill="#022169" d="M130.566,258.887h6.321v1.413h-6.297c-0.068,1.477-0.479,2.681-1.26,3.615
	c-1.277,1.547-2.617,2.239-4.018,2.142c-1.414-0.144-2.493-0.685-3.262-1.602l0.793-2.979h0.185c0.524,2.504,1.305,3.744,2.42,3.744
	c1.49,0,2.258-1.964,2.306-5.854v-6.087c0-0.979-0.06-1.635-0.16-1.916c-0.19-0.596-0.685-0.902-1.43-0.967v-0.217
	c1.32-0.129,2.782-0.46,4.408-1.07C130.449,250.92,130.449,254.197,130.566,258.887"/>
<path fill="#022169" d="M136.415,258.888h8.338c-0.563-0.527-0.933-1.164-1.091-1.849c-0.093-0.431-0.149-1.224-0.149-2.403v-3.997
	c0-0.995-0.056-1.651-0.153-1.973c-0.221-0.604-0.705-0.939-1.486-0.975v-0.238c1.946-0.254,3.632-0.616,5.073-1.054
	c-0.129,1.727-0.185,3.554-0.185,5.431v2.298c0,1.877,0.049,3.027,0.121,3.418c0.218,1.417,0.829,2.287,1.828,2.609l-0.032,0.145
	h-12.263V258.888z M136.476,263.763c0-0.58,0.188-1.027,0.587-1.409c0.379-0.37,0.838-0.548,1.401-0.548
	c0.552,0,1.039,0.177,1.406,0.548c0.387,0.382,0.603,0.829,0.603,1.409c0,0.528-0.217,0.986-0.603,1.377
	c-0.367,0.33-0.854,0.556-1.406,0.556c-0.571,0-1.03-0.225-1.401-0.556C136.665,264.769,136.476,264.318,136.476,263.763
	 M141.053,263.763c0-0.58,0.201-1.027,0.592-1.409c0.382-0.37,0.829-0.548,1.397-0.548c0.556,0,1.035,0.177,1.393,0.548
	c0.387,0.382,0.588,0.829,0.588,1.409c0,0.528-0.201,0.986-0.588,1.377c-0.366,0.33-0.853,0.556-1.393,0.556
	c-0.576,0-1.047-0.225-1.433-0.556C141.255,264.769,141.053,264.318,141.053,263.763"/>
<path fill="#022169" d="M167.102,258.887h6.128v1.413h-6.418c-0.382,1.457-1.086,2.698-2.102,3.776
	c-1.666,1.715-3.889,2.577-6.711,2.577c-2.074,0-4.163-0.576-6.317-1.739l1.151-3.584h0.214c0.697,3.125,2.38,4.711,5.065,4.711
	c3.833,0,5.757-3.052,5.757-9.119v-0.254c-0.999,2.48-2.931,3.733-5.838,3.733c-1.787,0-3.345-0.5-4.662-1.429
	c-1.49-1.023-2.226-2.4-2.226-4.163c0-2.037,0.777-3.664,2.335-4.824c1.433-1.087,3.192-1.663,5.31-1.663
	c2.645,0,4.703,0.808,6.22,2.452c1.462,1.602,2.191,3.736,2.191,6.381C167.199,257.78,167.162,258.36,167.102,258.887
	 M163.491,254.362c0-1.534-0.35-2.757-1.067-3.752c-0.781-1.083-1.896-1.639-3.338-1.639c-1.566,0-2.734,0.555-3.522,1.667
	c-0.685,0.979-0.998,2.294-0.998,3.921c0,1.445,0.354,2.649,1.103,3.567c0.805,1.022,1.92,1.521,3.337,1.521
	c1.409,0,2.524-0.539,3.371-1.622C163.112,257.031,163.491,255.807,163.491,254.362"/>
<path fill="#022169" d="M172.766,260.301v-1.413h2.758v-18.951c0-0.857-0.036-1.453-0.185-1.747c-0.201-0.539-0.66-0.8-1.381-0.861
	v-0.234c1.212-0.125,2.557-0.467,4.054-0.995v14.861c0.905-3.048,2.87-4.562,5.911-4.562c2.129,0,3.671,0.624,4.598,1.924
	c0.792,1.108,1.191,2.786,1.191,5.02v1.217c0,2.287,0.121,3.72,0.362,4.328h2.006v1.413H172.766z M187.538,258.887
	c-0.33-0.362-0.507-0.862-0.58-1.418v-3.901c0-1.788-0.225-3.108-0.656-3.977c-0.616-1.168-1.704-1.825-3.298-1.934
	c-2.419,0.145-3.901,1.652-4.428,4.465c-0.166,0.882-0.258,3.128-0.258,6.764H187.538z"/>
<path fill="#022169" d="M191.291,242.658c0-0.548,0.194-1.006,0.571-1.409c0.387-0.342,0.846-0.528,1.41-0.528
	c0.563,0,1.03,0.185,1.405,0.528c0.366,0.378,0.576,0.849,0.576,1.409c0,0.556-0.21,1.015-0.592,1.386
	c-0.387,0.353-0.854,0.539-1.389,0.539c-0.58,0-1.043-0.186-1.41-0.539C191.476,243.688,191.291,243.222,191.291,242.658
	 M196.258,242.658c0-0.548,0.201-1.006,0.592-1.409c0.367-0.342,0.845-0.528,1.397-0.528c0.572,0,1.034,0.185,1.417,0.528
	c0.387,0.378,0.556,0.849,0.556,1.409c0,0.556-0.169,1.015-0.556,1.386c-0.383,0.353-0.865,0.539-1.417,0.539
	c-0.564,0-1.03-0.186-1.417-0.539C196.46,243.688,196.258,243.222,196.258,242.658"/>
<path fill="#022169" d="M209.492,257.828c-0.125-0.837-0.189-1.912-0.189-3.192V241.66c0-1.997,0.052-3.821,0.145-5.395
	c-1.631,0.567-3.076,0.938-4.38,1.038v0.234c0.74,0.028,1.212,0.35,1.416,0.946c0.105,0.302,0.146,0.937,0.146,1.896v15.496
	c0,1.542,0.422,2.561,1.272,3.012h-3.044v-0.013h-2.323v-7.045c0-1.876,0.061-3.664,0.178-5.419
	c-1.426,0.46-3.117,0.789-5.069,1.043v0.238c0.797,0.049,1.28,0.371,1.498,0.983c0.112,0.314,0.164,0.97,0.164,1.965v8.237h-7.758
	v0.013h-1.772v1.413h21.286C210.221,259.902,209.71,259.084,209.492,257.828"/>
<path fill="#022169" d="M393.676,282.492v2.504h0.044c0.508-1.856,2.057-2.802,3.652-2.802c1.856,0,3.853,1.015,3.853,4.139v4.244
	c0,2.351,0.129,2.609,0.564,2.842c0.189,0.104,0.309,0.234,0.309,0.266c0,0.089-0.1,0.089-0.148,0.089
	c-0.218,0-0.866-0.041-1.442-0.041c-0.568,0-1.216,0.041-1.457,0.041c-0.129,0-0.246,0-0.246-0.061c0-0.116,0.262-0.206,0.338-0.294
	c0.584-0.378,0.677-1.546,0.677-3.157v-2.922c0-3.672-1.305-4.63-2.798-4.63c-1.888,0-3.188,2.118-3.188,4.662v3.321
	c0,1.602,0.072,2.323,0.623,2.746c0.181,0.157,0.314,0.221,0.314,0.273c0,0.061-0.052,0.061-0.133,0.061
	c-0.305,0-0.962-0.041-1.469-0.041c-0.507,0-1.171,0.041-1.469,0.041c-0.089,0-0.145,0-0.145-0.114c0-0.064,0.145-0.137,0.318-0.241
	c0.547-0.403,0.632-1.876,0.632-3.088v-4.847c0-1.671-0.269-1.973-0.592-2.099c-0.145-0.031-0.221-0.136-0.221-0.209
	c0-0.088,0.129-0.097,0.197-0.105L393.676,282.492z"/>
<path fill="#022169" d="M400.496,293.917c-0.548,0-1.188,0.009-1.445,0.009c-0.129-0.009-0.318,0-0.414-0.214
	c0.044-0.342,0.387-0.35,0.414-0.43c0.45-0.266,0.587-1.41,0.587-3.02v-2.931c-0.024-3.647-1.224-4.457-2.616-4.465
	c-1.752,0-3.028,1.985-3.044,4.505v3.321c0,1.603,0.125,2.275,0.592,2.621c0.157,0.173,0.286,0.125,0.382,0.398
	c0,0.214-0.289,0.214-0.314,0.214c-0.338,0-0.983-0.009-1.47-0.009c-0.499,0-1.151,0.009-1.469,0.009
	c-0.089,0-0.33-0.048-0.33-0.266c0.065-0.29,0.242-0.242,0.399-0.378c0.435-0.266,0.592-1.747,0.576-2.964v-4.843
	c-0.024-1.663-0.298-1.84-0.483-1.936c-0.197-0.04-0.318-0.185-0.342-0.363c0.045-0.302,0.298-0.241,0.33-0.282l1.76-0.556
	l0.242-0.089v0.242l-0.137,2.006c0.628-1.631,2.134-2.492,3.66-2.492c1.92,0,3.998,1.135,4.03,4.327v4.244
	c0,2.404,0.12,2.529,0.466,2.706c0.218,0.137,0.355,0.157,0.407,0.402c-0.052,0.274-0.278,0.242-0.326,0.242
	C401.72,293.926,401.067,293.917,400.496,293.917 M399.989,287.331v2.931c-0.02,1.61-0.065,2.814-0.717,3.262
	c-0.056,0.04-0.093,0.072-0.136,0.072c0.298,0,0.861-0.032,1.361-0.032c0.47,0,0.986,0.032,1.276,0.032
	c-0.016,0-0.052-0.032-0.052-0.032h-0.008c-0.552-0.282-0.672-0.644-0.672-2.988v-4.244c0-3.035-1.884-3.994-3.667-3.994
	c-1.526,0-3.008,0.911-3.652,2.811l-0.225-0.173v-2.267l-1.558,0.5h-0.024c0.016,0.016,0.024,0.04,0.072,0.04
	c0.427,0.185,0.713,0.564,0.697,2.226v4.843c-0.012,1.232-0.052,2.722-0.697,3.205c-0.048,0.04-0.072,0.072-0.113,0.072
	c0.33,0,0.85-0.032,1.296-0.032c0.394,0,0.874,0.032,1.221,0.032c0,0-0.032,0-0.032-0.032c-0.636-0.488-0.709-1.268-0.709-2.871
	v-3.321c0-2.581,1.321-4.807,3.374-4.839C398.624,282.532,399.989,283.635,399.989,287.331"/>
<path fill="#022169" d="M403.197,283.684c-0.249,0-0.345,0-0.345-0.145c0-0.076,0.048-0.153,0.277-0.29
	c0.934-0.596,1.821-1.614,2.106-3.08c0.041-0.185,0.1-0.302,0.193-0.302c0.076,0,0.093,0.04,0.093,0.274v2.999h1.546
	c0.19,0,0.25,0.036,0.25,0.068c0,0-0.012,0.089-0.012,0.145l-0.048,0.33h-1.736v3.785c0,3.109,0.165,5.697,1.265,6.047
	c0.096,0.008,0.121,0.048,0.121,0.081c0,0.064-0.085,0.089-0.307,0.089c-0.374,0.028-0.733,0.048-1.103,0.048
	c-0.906,0-1.28-0.209-1.28-2.444v-7.605H403.197z"/>
<path fill="#022169" d="M404.056,291.288l0.16-7.476h-1.019v-0.129v-0.173l1.184,0.173v7.605c0.06,2.275,0.266,2.235,1.116,2.275
	c0.306,0,0.632-0.016,0.962-0.04c-1.042-0.721-1.087-3.164-1.123-6.063l0.169-3.95l1.563,0.157l0.064-0.363v-0.032
	c0,0.025-0.023,0.025-0.064,0.025l-1.731-0.157v-2.67c-0.338,1.369-1.2,2.343-2.098,2.903c-0.117,0.077-0.185,0.137-0.201,0.137
	h0.161v0.173v0.129c-0.209,0-0.507,0-0.507-0.274c0-0.165,0.113-0.282,0.346-0.427c0.905-0.579,1.736-1.566,2.025-2.971
	c0.061-0.186,0.085-0.383,0.366-0.431c0.238,0,0.258,0.245,0.258,0.431l-0.182,2.85h1.563c0.157,0,0.387,0,0.407,0.258v0.105
	l-0.218,0.459l-1.57-0.129v3.776c-0.021,3.097,0.249,5.693,1.123,5.89c0.113,0.012,0.258,0.125,0.258,0.245
	c-0.024,0.254-0.269,0.254-0.459,0.254c-0.37,0.028-0.74,0.06-1.111,0.06C404.514,293.91,404.056,293.507,404.056,291.288"/>
<path fill="#022169" d="M279.432,282.854c0-1.953-0.229-2.335-0.66-2.577c-0.117-0.08-0.205-0.137-0.205-0.258
	c0-0.076,0.048-0.165,0.519-0.165h5.439c4.36,0,6.574,3.258,6.574,6.736c0,3.966-2.307,6.848-5.83,7.19
	c-0.447,0.056-0.906,0.069-1.373,0.069c-0.466,0-1.244-0.069-2.057-0.069h-2.037c-0.736,0-1.224,0.097-1.429,0.097
	c-0.093,0-0.137-0.028-0.137-0.068c0-0.097,0.08-0.149,0.205-0.214c0.947-0.668,0.99-1.163,0.99-3.402V282.854z M280.943,289.811
	c0,2.67,0.345,3.306,1.103,3.382c0.729,0.089,1.224,0.121,1.634,0.121c0.435,0,0.894-0.032,1.333-0.08
	c2.512-0.233,4.195-1.868,4.195-6.683c0-4.545-1.722-6.148-5.29-6.148h-2.975V289.811z"/>
<path fill="#022169" d="M278.068,293.789c0.016-0.194,0.169-0.266,0.282-0.351c0.861-0.607,0.893-0.979,0.902-3.245v-7.34
	c0-1.953-0.218-2.215-0.604-2.471c-0.08-0.04-0.249-0.117-0.262-0.363c0.012-0.213,0.25-0.31,0.701-0.31h5.439
	c4.473,0,6.715,3.313,6.743,6.881c0,4.025-2.351,7.005-5.998,7.355c-0.439,0.048-0.906,0.06-1.373,0.06
	c-0.48,0-1.244-0.06-2.057-0.06h-2.021c-0.753,0-1.203,0.076-1.445,0.076C278.281,294.023,278.1,294.023,278.068,293.789
	 M279.614,290.194c0,2.177-0.064,2.822-1.034,3.491c0.258-0.024,0.684-0.06,1.24-0.06h2.021c0.822,0,1.618,0.06,2.057,0.06
	c0.455,0,0.893-0.024,1.36-0.06c3.419-0.343,5.657-3.129,5.665-7.033c-0.007-3.415-2.13-6.571-6.397-6.571h-5.439
	c-0.165,0-0.269,0-0.326,0.024c0.012,0.008,0.041,0.024,0.077,0.097c0.535,0.289,0.777,0.772,0.777,2.713V290.194z M282.017,293.362
	c-0.921-0.128-1.264-0.902-1.252-3.55l0.177-9.582h2.975c3.635,0,5.44,1.755,5.44,6.32c0.027,4.835-1.72,6.603-4.344,6.869
	c-0.431,0.02-0.874,0.057-1.333,0.057C283.245,293.475,282.746,293.439,282.017,293.362 M282.066,293.04
	c0.721,0.077,1.203,0.113,1.614,0.113c0.435,0,0.862-0.036,1.309-0.077c2.412-0.254,4.01-1.719,4.055-6.526
	c-0.057-4.484-1.643-5.95-5.126-5.983l-2.806-0.164v9.409C281.124,292.501,281.47,292.979,282.066,293.04"/>
<path fill="#022169" d="M295.199,286.655c-0.045,0.314-0.109,0.697-0.109,1.046c0,3.189,0.975,5.785,3.769,5.785
	c2.681,0,3.941-3.128,4.05-3.849c0.016-0.137,0.084-0.302,0.221-0.302c0.113,0,0.161,0.065,0.161,0.194
	c0,0.157-0.049,0.354-0.101,0.548c-0.653,2.553-2.657,4.034-5.012,4.034c-2.738,0-4.775-2.81-4.775-6.088
	c0-2.842,1.892-5.793,4.989-5.793c2.303,0,4.5,1.506,4.727,4.425H295.199z M301.403,286.107c0-2.09-1.256-3.358-2.914-3.358
	c-1.877,0-2.855,1.268-3.242,3.358H301.403z"/>
<path fill="#022169" d="M298.178,294.289c-2.882-0.02-4.948-2.923-4.948-6.265c0-2.899,1.925-5.958,5.161-5.958
	c2.379-0.008,4.674,1.57,4.727,4.758h-7.754c-0.052,0.274-0.097,0.596-0.097,0.878c0.024,3.164,0.963,5.612,3.591,5.612
	c2.5,0.036,3.789-3.043,3.857-3.716c0.056-0.125,0.084-0.411,0.415-0.439c0.25,0,0.322,0.242,0.322,0.371
	c0,0.177-0.036,0.403-0.085,0.576c-0.672,2.612-2.734,4.183-5.178,4.183H298.178z M293.569,288.024c0,3.237,2.001,5.902,4.609,5.923
	c2.267,0,4.207-1.445,4.843-3.926c0.045-0.161,0.097-0.334,0.097-0.459c-0.02,0.024-0.045,0.036-0.045,0.085
	c-0.121,0.761-1.372,3.949-4.215,4.006c-2.935,0-3.934-2.761-3.934-5.95c0-0.363,0.065-0.741,0.105-1.084l0.169,0.037v-0.173
	l7.726,0.185c-0.221-2.854-2.303-4.279-4.533-4.279C295.432,282.388,293.569,285.238,293.569,288.024 M295.062,286.091
	c0.387-2.122,1.441-3.511,3.426-3.511c1.767,0.013,3.092,1.369,3.092,3.527h-0.177v0.178L295.062,286.091z M295.247,285.954h5.995
	c-0.089-1.936-1.232-3.019-2.754-3.019C296.701,282.935,295.806,284.07,295.247,285.954"/>
<path fill="#022169" d="M310.687,291.784l1.651-3.954c0.664-1.574,1.272-3.14,1.272-3.76c0-0.56-0.15-0.958-0.459-1.143
	c-0.23-0.177-0.447-0.274-0.447-0.346c0-0.077,0.02-0.145,0.1-0.145c0.161,0,0.806,0.096,1.292,0.096
	c0.705,0,1.099-0.096,1.253-0.096c0.104,0,0.157,0.056,0.157,0.129c0,0.089-0.1,0.145-0.19,0.234
	c-0.587,0.528-1.327,2.081-2.157,4.115l-2.537,6.241c-0.367,0.893-0.423,0.958-0.467,0.958h-0.032c-0.06,0-0.234-0.515-0.407-0.958
	l-3.241-7.766c-0.572-1.349-0.942-2.21-1.409-2.573c-0.141-0.105-0.233-0.161-0.233-0.234c0-0.089,0.109-0.145,0.278-0.145
	c0.238,0,0.753,0.096,1.3,0.096c0.552,0,1.031-0.096,1.233-0.096c0.229,0,0.358,0.056,0.358,0.129c0,0.089-0.108,0.145-0.281,0.302
	c-0.238,0.156-0.278,0.382-0.278,0.732c0,0.35,0.289,1.213,0.643,2.081L310.687,291.784z"/>
<path fill="#022169" d="M310.124,294.288c-0.407-0.205-0.31-0.628-0.572-1.095l-3.221-7.746c-0.588-1.368-0.975-2.222-1.369-2.496
	c-0.128-0.097-0.265-0.153-0.294-0.37c0-0.242,0.274-0.331,0.444-0.331c0.261,0.016,0.784,0.117,1.3,0.117
	c0.515,0,0.982-0.101,1.232-0.117c0.213,0.016,0.483,0.016,0.519,0.314c-0.024,0.234-0.173,0.29-0.334,0.439
	c-0.185,0.124-0.218,0.245-0.234,0.595c0,0.274,0.298,1.152,0.66,2.001l2.432,5.718l1.493-3.536
	c0.672-1.594,1.256-3.176,1.256-3.744c0-0.499-0.148-0.861-0.394-1.015c-0.215-0.169-0.44-0.149-0.509-0.442
	c0-0.077,0.009-0.315,0.271-0.331c0.197,0.016,0.805,0.117,1.292,0.117c0.688,0,1.051-0.101,1.252-0.117
	c0.145,0,0.325,0.145,0.325,0.314c0,0.214-0.181,0.29-0.229,0.362c-0.547,0.447-1.288,2.021-2.114,4.042l-2.56,6.224
	c-0.387,0.902-0.306,0.979-0.616,1.095H310.124z M305.176,282.709c0.519,0.379,0.881,1.28,1.461,2.616l3.241,7.779
	c0.081,0.245,0.194,0.518,0.278,0.704c0.052-0.125,0.149-0.371,0.294-0.704l2.552-6.241c0.858-2.053,1.558-3.607,2.206-4.187
	c0.053-0.024,0.074-0.065,0.085-0.097c-0.145,0.032-0.563,0.128-1.196,0.128c-0.387,0-0.874-0.08-1.132-0.097
	c0.077,0.041,0.186,0.097,0.258,0.153c0.387,0.246,0.548,0.733,0.548,1.272c0,0.705-0.612,2.255-1.276,3.857l-1.651,3.93
	l-0.157,0.37l-2.774-6.474c-0.359-0.869-0.645-1.703-0.656-2.122c0-0.373,0.064-0.656,0.338-0.849
	c0.125-0.097,0.181-0.137,0.218-0.169h-0.169c-0.169,0-0.669,0.128-1.232,0.128c-0.556,0-1.111-0.128-1.3-0.128h-0.073
	C305.05,282.613,305.082,282.629,305.176,282.709 M310.688,291.784l0.157-0.084L310.688,291.784z M307.829,282.572
	c0.016,0,0.016,0,0-0.008V282.572z"/>
<path fill="#022169" d="M318.904,286.655c-0.048,0.314-0.109,0.697-0.109,1.046c0,3.189,0.975,5.785,3.769,5.785
	c2.645,0,3.934-3.128,4.045-3.849c0.009-0.137,0.07-0.302,0.231-0.302c0.088,0,0.136,0.065,0.136,0.194
	c0,0.157-0.048,0.354-0.077,0.548c-0.663,2.553-2.661,4.034-5.028,4.034c-2.742,0-4.775-2.81-4.775-6.088
	c0-2.842,1.881-5.793,4.988-5.793c2.291,0,4.505,1.506,4.707,4.425H318.904z M325.108,286.107c0-2.09-1.264-3.358-2.938-3.358
	c-1.86,0-2.843,1.268-3.242,3.358H325.108z"/>
<path fill="#022169" d="M321.872,294.289c-2.895-0.02-4.94-2.923-4.94-6.265c0-2.899,1.925-5.958,5.153-5.958
	c2.369-0.008,4.67,1.57,4.707,4.758h-7.75c-0.049,0.274-0.089,0.596-0.089,0.878c0.025,3.164,0.975,5.612,3.612,5.612
	c2.492,0.036,3.788-3.043,3.868-3.716c0.036-0.125,0.093-0.411,0.407-0.439c0.238,0,0.29,0.242,0.29,0.371
	c0,0.177-0.025,0.403-0.081,0.576c-0.66,2.612-2.726,4.183-5.17,4.183H321.872z M317.274,288.024c0,3.237,2.009,5.902,4.598,5.923
	c2.29,0,4.203-1.445,4.847-3.926c0.069-0.161,0.073-0.334,0.073-0.459c0,0-0.004,0.036-0.004,0.085
	c-0.129,0.761-1.405,3.949-4.223,4.006c-2.952,0-3.946-2.761-3.946-5.95c0-0.363,0.049-0.741,0.113-1.084l0.173,0.037v-0.173
	l7.715,0.185c-0.211-2.854-2.316-4.279-4.535-4.279C319.113,282.388,317.274,285.238,317.274,288.024 M318.759,286.091
	c0.37-2.122,1.461-3.511,3.411-3.511c1.786,0.013,3.1,1.369,3.1,3.527h-0.161v0.178L318.759,286.091z M318.928,285.954h5.991
	c-0.061-1.936-1.228-3.019-2.749-3.019C320.426,282.935,319.512,284.07,318.928,285.954"/>
<path fill="#022169" d="M381.59,286.655c-0.048,0.314-0.109,0.697-0.109,1.046c0,3.189,0.978,5.785,3.768,5.785
	c2.674,0,3.958-3.128,4.046-3.849c0.016-0.137,0.101-0.302,0.222-0.302c0.124,0,0.161,0.065,0.161,0.194
	c0,0.157-0.036,0.354-0.097,0.548c-0.648,2.553-2.629,4.034-5.012,4.034c-2.742,0-4.779-2.81-4.779-6.088
	c0-2.842,1.9-5.793,4.98-5.793c2.296,0,4.51,1.506,4.711,4.425H381.59z M387.794,286.107c0-2.09-1.256-3.358-2.914-3.358
	c-1.86,0-2.867,1.268-3.237,3.358H387.794z"/>
<path fill="#022169" d="M384.569,294.289c-2.879-0.02-4.924-2.923-4.948-6.265c0.024-2.899,1.92-5.958,5.149-5.958
	c2.379-0.008,4.687,1.57,4.739,4.758h-7.754c-0.052,0.274-0.1,0.596-0.1,0.878c0.024,3.164,0.966,5.612,3.595,5.612
	c2.504,0.036,3.796-3.043,3.885-3.716c0.024-0.125,0.073-0.411,0.383-0.439c0.262,0,0.322,0.242,0.322,0.371
	c0,0.177-0.056,0.403-0.081,0.576c-0.664,2.612-2.73,4.183-5.165,4.183H384.569z M379.967,288.024c0,3.237,1.997,5.902,4.602,5.923
	c2.287,0,4.203-1.445,4.831-3.926c0.068-0.161,0.08-0.334,0.08-0.459c0,0-0.012,0.036-0.012,0.085
	c-0.124,0.761-1.393,3.949-4.219,4.006c-2.943,0-3.917-2.761-3.917-5.95c0-0.363,0.048-0.741,0.097-1.084l0.161,0.037v-0.173
	l7.722,0.185c-0.218-2.854-2.327-4.279-4.542-4.279C381.811,282.388,379.967,285.238,379.967,288.024 M381.465,286.091
	c0.375-2.122,1.442-3.511,3.415-3.511c1.771,0.013,3.092,1.369,3.092,3.527h-0.177v0.178L381.465,286.091z M381.642,285.954h5.966
	c-0.064-1.936-1.208-3.019-2.729-3.019C383.119,282.935,382.194,284.07,381.642,285.954"/>
<path fill="#022169" d="M331.458,290.633c0,1.28,0.101,2.532,0.659,2.842c0.161,0.089,0.383,0.149,0.383,0.258
	c0,0.077-0.221,0.105-0.31,0.105c-0.204,0-0.869-0.056-1.376-0.056c-0.523,0-1.168,0.056-1.466,0.056
	c-0.326,0-0.394-0.028-0.394-0.105c0-0.109,0.221-0.169,0.471-0.314c0.645-0.342,0.733-2.23,0.733-4.476v-7.698
	c0-1.586-0.138-2.081-0.624-2.294c-0.124-0.032-0.185-0.08-0.185-0.129c0-0.068,0.101-0.129,0.173-0.137l1.936-0.576V290.633z"/>
<path fill="#022169" d="M330.813,293.947c-0.524,0-1.168,0.048-1.478,0.048c-0.281,0-0.507,0-0.555-0.262
	c0.068-0.314,0.326-0.314,0.555-0.451c0.5-0.177,0.665-2.102,0.657-4.34v-7.678c0-1.622-0.157-2.013-0.527-2.15
	c-0.117-0.077-0.254-0.1-0.29-0.294c0.036-0.217,0.225-0.242,0.29-0.282l2.161-0.669v12.763c-0.011,1.265,0.142,2.52,0.564,2.682
	c0.145,0.105,0.411,0.105,0.483,0.419c-0.165,0.262-0.374,0.214-0.499,0.262C331.956,293.995,331.308,293.947,330.813,293.947
	 M330.334,281.264v7.678c-0.045,2.259-0.045,4.099-0.813,4.622c-0.073,0.032-0.165,0.059-0.218,0.097h0.031
	c0.298,0,0.943-0.037,1.478-0.037c0.495,0,1.143,0.037,1.361,0.037c-0.049-0.008-0.069-0.037-0.165-0.065
	c-0.688-0.411-0.701-1.684-0.728-2.964v-12.312l-1.635,0.499C330.205,279.114,330.334,279.709,330.334,281.264"/>
<path fill="#022169" d="M339.803,282.23c2.669,0,5.226,2.347,5.226,5.931c0,3.587-2.556,5.95-5.226,5.95
	c-2.665,0-5.25-2.364-5.25-5.95C334.554,284.578,337.138,282.23,339.803,282.23 M339.803,293.563c2.609,0,3.547-2.452,3.519-5.402
	c0.028-2.931-0.909-5.412-3.519-5.412s-3.575,2.48-3.535,5.412C336.229,291.112,337.194,293.563,339.803,293.563"/>
<path fill="#022169" d="M334.397,288.161c0.016-3.631,2.629-6.095,5.407-6.095v0.165v0.157c-2.557,0-5.073,2.287-5.073,5.773
	c0,3.511,2.516,5.765,5.073,5.785c2.557-0.02,5.06-2.275,5.06-5.785c0-3.486-2.503-5.773-5.06-5.773v-0.157v-0.165
	c2.778,0,5.386,2.464,5.402,6.095c-0.016,3.656-2.624,6.107-5.402,6.128C337.026,294.268,334.413,291.816,334.397,288.161
	 M336.091,288.269v-0.06v-0.008c-0.008-0.068,0-0.117,0-0.137c0-2.903,0.974-5.471,3.712-5.483c2.73,0.012,3.695,2.592,3.695,5.503
	v0.125v0.06c0,2.882-0.966,5.463-3.695,5.463v-0.169v-0.145c2.42,0,3.354-2.278,3.354-5.149c0.011-0.04,0-0.06,0.011-0.109
	l-0.011-0.048v-0.028c0-2.903-0.934-5.149-3.354-5.149c-2.431,0-3.349,2.247-3.358,5.129v0.105v0.101
	c0.008,2.871,0.902,5.149,3.358,5.149v0.145v0.169C337.065,293.733,336.091,291.151,336.091,288.269"/>
<path fill="#022169" d="M348.935,285.326h0.052c0.688-1.876,1.904-3.083,3.893-3.095c2.649,0,4.871,2.511,4.871,5.793
	c0,3.342-2.033,6.087-5.036,6.087c-1.574-0.064-3.125-1.192-3.607-2.198h-0.024v3.285c0,1.071,0.024,1.952,0.684,2.464
	c0.189,0.125,0.37,0.161,0.37,0.274c0,0.036-0.052,0.073-0.234,0.073c-0.136,0-0.462-0.056-1.393-0.056
	c-1.143,0-1.425,0.056-1.514,0.056c-0.17,0-0.262-0.036-0.262-0.073c0-0.089,0.052-0.129,0.447-0.306
	c0.362-0.137,0.572-1.767,0.572-3.969v-8.478c0-1.515-0.346-1.732-0.612-1.789c-0.096-0.02-0.177-0.04-0.177-0.095
	c0-0.05,0.052-0.089,0.177-0.121c0.692-0.166,1.304-0.399,1.792-0.644V285.326z M349.084,287.947c0,3.081,0.842,5.616,3.559,5.616
	c2.617,0,3.41-2.624,3.41-5.616c0-2.798-1.042-5.198-3.41-5.198C350.086,282.749,349.084,285.326,349.084,287.947"/>
<path fill="#022169" d="M348.512,298.121c-1.176,0-1.377,0.056-1.514,0.056c-0.181-0.04-0.363,0.04-0.443-0.242
	c0.023-0.226,0.181-0.298,0.564-0.443c0.148-0.028,0.511-1.67,0.466-3.833v-8.479c-0.016-1.514-0.338-1.61-0.471-1.622
	c-0.096-0.02-0.285-0.049-0.318-0.261c0.02-0.21,0.201-0.274,0.322-0.287c0.656-0.144,1.268-0.383,1.727-0.624l0.261-0.137v0.282
	v2.082c0.733-1.543,1.937-2.541,3.773-2.549c2.773,0,5.032,2.624,5.032,5.959c0,3.362-2.081,6.244-5.198,6.264
	c-1.501-0.088-2.934-1.035-3.47-1.916v2.826c0,1.071,0.049,1.884,0.608,2.315c0.173,0.149,0.375,0.097,0.443,0.423
	c0,0.185-0.249,0.242-0.391,0.242C349.715,298.178,349.425,298.121,348.512,298.121 M349.767,297.847
	c-0.04-0.024-0.093-0.04-0.117-0.06c-0.733-0.576-0.74-1.555-0.769-2.589l0.202-3.414l0.176,0.081
	c0.439,0.926,1.969,2.045,3.454,2.081c2.883-0.02,4.836-2.645,4.86-5.922c0-3.213-2.178-5.637-4.694-5.637
	c-1.816,0.028-2.932,1.046-3.773,2.85v0.089h-0.059c-0.016,0.06-0.045,0.121-0.061,0.177h-0.052v-0.177h-0.173v-2.528
	c-0.406,0.205-0.893,0.378-1.425,0.499c0.318,0.145,0.604,0.584,0.604,1.884v8.479c-0.049,2.23-0.137,3.793-0.685,4.127
	c-0.056,0.02-0.112,0.02-0.141,0.06c0.153-0.024,0.568-0.06,1.397-0.06C349.208,297.787,349.578,297.823,349.767,297.847
	 M348.882,287.959c0.029-2.633,1.027-5.347,3.761-5.379c2.532,0.032,3.583,2.545,3.583,5.379c0,2.979-0.79,5.753-3.583,5.773
	C349.767,293.713,348.91,291.028,348.882,287.959 M352.643,293.418c2.456,0,3.228-2.52,3.228-5.459c0-2.798-1.018-5.024-3.228-5.024
	c-2.404,0-3.382,2.424-3.398,5.024C349.26,291.028,350.086,293.418,352.643,293.418"/>
<path fill="#022169" d="M361.632,282.416v2.581h0.052c0.733-1.908,2.122-2.915,3.603-2.915c2.601,0,3.45,1.175,4.134,3.101h0.024
	c0.543-2.102,1.912-3.101,3.515-3.101c3.491,0,4.573,2.086,4.573,4.832v3.857c0,1.642,0.057,2.423,0.584,2.854
	c0.185,0.149,0.367,0.165,0.367,0.226c0,0.068-0.056,0.076-0.141,0.076c-0.342,0-1.079-0.016-1.743-0.016
	c-0.657,0-1.402,0.016-1.522,0.016c-0.113,0-0.185-0.008-0.185-0.076c0-0.06,0.073-0.137,0.221-0.189
	c0.592-0.346,0.765-1.248,0.765-2.536v-3.849c0-3.668-1.586-4.622-2.975-4.622c-2.416,0-3.145,2.275-3.145,5.576v3.458
	c0,0.725,0.145,1.627,0.604,1.876c0.201,0.097,0.383,0.226,0.383,0.286c0,0.068-0.085,0.076-0.194,0.076
	c-0.33,0-1.107-0.016-1.751-0.016c-0.657,0-1.426,0.016-1.587,0.016c-0.088,0-0.168-0.008-0.168-0.076
	c0-0.06,0.156-0.117,0.329-0.254c0.644-0.442,0.758-1.183,0.758-3.188v-4.074c0-2.726-1.663-3.68-2.847-3.68
	c-1.925,0-3.483,2.529-3.483,4.952v3.72c0,1.087,0.089,1.829,0.677,2.335c0.097,0.052,0.261,0.073,0.261,0.189
	c0,0.068-0.12,0.076-0.229,0.076c-0.125,0-0.346-0.016-1.461-0.016c-1.055,0-1.353,0.016-1.502,0.016
	c-0.101,0-0.173-0.008-0.173-0.076c0-0.117,0.137-0.137,0.274-0.254c0.54-0.442,0.637-1.848,0.637-3.216v-5.403
	c0-1.24-0.343-1.405-0.548-1.526c-0.225-0.097-0.302-0.125-0.302-0.225c0-0.049,0.036-0.137,0.137-0.145L361.632,282.416z"/>
<path fill="#022169" d="M359.201,293.849c0.052-0.334,0.274-0.286,0.35-0.411c0.418-0.286,0.584-1.691,0.572-3.059v-5.403
	c-0.04-1.22-0.274-1.22-0.488-1.369c-0.16-0.097-0.345-0.097-0.382-0.382c0-0.153,0.14-0.298,0.278-0.331l2.056-0.663l0.218-0.077
	v0.262l-0.144,2.19c0.773-1.752,2.145-2.697,3.626-2.697c2.561-0.028,3.56,1.172,4.071,2.943c0.624-1.997,2.001-2.963,3.604-2.943
	c3.571,0,4.738,2.198,4.738,5.004v3.858c0,1.642,0.085,2.383,0.52,2.705c0.161,0.177,0.298,0,0.447,0.374
	c-0.04,0.262-0.25,0.262-0.322,0.262c-0.351,0-1.1-0.028-1.743-0.028c-0.644,0-1.386,0.028-1.522,0.028
	c-0.092,0-0.321,0.048-0.37-0.262c0.048-0.225,0.173-0.286,0.322-0.362c0.47-0.294,0.696-1.075,0.676-2.363v-3.849
	c-0.012-3.607-1.497-4.421-2.802-4.46c-2.279,0-2.959,2.114-2.968,5.415v3.458c-0.016,0.716,0.165,1.546,0.508,1.723
	c0.23,0.153,0.395,0.113,0.479,0.439c-0.064,0.322-0.289,0.246-0.37,0.262c-0.359,0-1.115-0.028-1.751-0.028
	c-0.657,0-1.413,0.028-1.586,0.028c-0.076,0-0.319-0.016-0.319-0.262c0.097-0.334,0.218-0.225,0.395-0.411
	c0.543-0.363,0.648-1.027,0.648-3.007v-4.099c0-2.649-1.542-3.519-2.654-3.519c-1.791,0-3.309,2.435-3.309,4.79v3.72
	c0,1.087,0.104,1.751,0.576,2.162c0.049,0.077,0.298,0.02,0.367,0.362c-0.076,0.262-0.306,0.234-0.407,0.262
	c-0.137,0-0.33-0.028-1.461-0.028c-1.084,0-1.313,0.028-1.502,0.028h-0.052C359.402,294.111,359.225,294.095,359.201,293.849
	 M370.333,293.733h-0.024c-0.612-0.362-0.721-1.32-0.721-2.045v-3.458c0-3.301,0.769-5.773,3.318-5.786
	c1.481,0.013,3.156,1.096,3.156,4.832v3.849c0,1.22-0.141,2.158-0.757,2.609c0.31,0,0.826-0.032,1.297-0.032
	c0.479,0,0.99,0.032,1.368,0.032c-0.584-0.54-0.62-1.361-0.62-2.963v-3.858c-0.036-2.697-0.97-4.605-4.388-4.645
	c-1.539,0-2.818,0.909-3.515,3.108l-0.194-0.125c-0.696-1.897-1.433-2.971-3.966-2.983c-1.409,0-2.733,0.942-3.603,2.906
	l-0.213-0.176v-2.343l-1.772,0.571c0.04,0.024,0.06,0.032,0.109,0.048c0.229,0.121,0.668,0.435,0.648,1.704v5.403
	c-0.012,1.368-0.06,2.773-0.677,3.353c0.218,0,0.56-0.032,1.273-0.032c0.68,0,1.046,0.012,1.244,0.032
	c-0.584-0.568-0.664-1.361-0.664-2.408v-3.72c0-2.492,1.566-5.113,3.655-5.162c1.281,0.013,3.02,1.067,3.02,3.89v4.099
	c0,1.94-0.105,2.801-0.806,3.301c0.318,0,0.826-0.032,1.301-0.032C369.33,293.7,369.946,293.733,370.333,293.733"/>
<path fill="#022169" d="M172.022,289.384c0,0.822,0.065,1.667,0.141,2.513c0.104,1.179,0.592,1.288,2.403,1.288
	c1.703,0,3.643-0.109,5.169-1.127c0.56-0.419,0.761-0.701,1.059-1.192c0.069-0.047,0.113-0.096,0.161-0.096
	c0.06,0,0.085,0.049,0.085,0.096c0,0.073,0,0.177-0.024,0.258l-0.721,2.609h-10.734c-0.181,0-0.237,0-0.237-0.073
	c0-0.065,0.088-0.185,0.306-0.242c0.837-0.302,0.881-2.746,0.881-3.78v-7.532c0-0.822-0.032-1.546-0.659-1.965
	c-0.07-0.012-0.13-0.032-0.13-0.121c0-0.125,0.225-0.125,0.363-0.125h9.401l0.318,1.252c0.145,0.564,0.346,1.417,0.346,1.507
	c0,0.056-0.065,0.077-0.117,0.077c-0.045,0-0.125-0.118-0.17-0.226c-0.901-1.591-2.455-2.074-4.614-2.074h-3.228v5.601h1.743
	c2.544,0,3.604-0.096,4.03-0.608c0.258-0.31,0.387-0.544,0.491-0.893c0.04-0.061,0.076-0.114,0.124-0.114
	c0.089,0,0.089,0.121,0.089,0.334v3.197c0,0.117,0,0.35-0.06,0.35c-0.04,0-0.076-0.068-0.113-0.128
	c-0.117-0.339-0.25-0.605-0.6-0.895c-0.853-0.684-2.923-0.684-3.961-0.684h-1.743V289.384z"/>
<path fill="#022169" d="M169.561,293.909c-0.124,0-0.358,0-0.422-0.249c0.024-0.185,0.185-0.321,0.435-0.426
	c0.611-0.096,0.801-2.601,0.764-3.596v-7.557c0-0.797-0.04-1.453-0.575-1.795c-0.049-0.008-0.221-0.089-0.202-0.266
	c0.07-0.297,0.403-0.261,0.524-0.297l9.582,0.132l0.31,1.233c0.145,0.584,0.334,1.405,0.346,1.542c0,0.185-0.201,0.245-0.29,0.245
	c-0.262-0.061-0.246-0.165-0.335-0.294c-0.853-1.522-2.314-1.981-4.449-1.981l-3.055-0.169l-0.173,5.456h1.744
	c2.528,0,3.578-0.166,3.888-0.561c0.25-0.314,0.35-0.515,0.467-0.878c0.06-0.068,0.129-0.205,0.29-0.205
	c0.249,0.117,0.238,0.322,0.249,0.507v3.197c-0.048,0.117,0,0.334-0.238,0.507c-0.213-0.06-0.189-0.137-0.262-0.225
	c-0.121-0.334-0.23-0.568-0.556-0.842c-0.733-0.623-2.826-0.66-3.84-0.66l-1.57-0.137v2.794c0,0.821,0.064,1.659,0.141,2.488
	c0.129,1.116,0.387,1.116,2.231,1.168c1.69,0,3.583-0.129,5.068-1.128c0.556-0.363,0.717-0.652,1.035-1.143
	c0.065-0.077,0.125-0.153,0.286-0.153c0.177,0,0.258,0.153,0.258,0.25c0,0.073,0,0.185-0.036,0.314l-0.882,2.729H169.561z
	 M180.15,293.685l0.693-2.561c-0.258,0.37-0.467,0.7-1.003,1.034c-1.606,1.075-3.571,1.204-5.274,1.204
	c-1.776,0.056-2.517-0.197-2.577-1.45c-0.075-0.862-0.137-1.707-0.137-2.528l0.169-2.972h1.744c1.039,0,3.108-0.032,4.075,0.725
	c0.229,0.201,0.37,0.399,0.487,0.595v-2.826c-0.093,0.206-0.214,0.391-0.395,0.636c-0.547,0.563-1.638,0.644-4.166,0.644
	l-1.913-0.157l0.169-5.753h3.228c2.075-0.012,3.668,0.439,4.635,1.952c-0.057-0.322-0.166-0.753-0.25-1.067l-0.148-1.112h-9.401
	c-0.028,0-0.052-0.008-0.093-0.008c0.664,0.475,0.693,1.268,0.693,2.037v7.557c-0.049,1.043,0.04,3.479-1.006,3.926h-0.025
	L180.15,293.685z"/>
<path fill="#022169" d="M184.792,282.492v2.504h0.056c0.495-1.856,2.049-2.802,3.627-2.802c1.856,0,3.865,1.015,3.865,4.139v4.244
	c0,2.351,0.125,2.609,0.572,2.842c0.185,0.104,0.306,0.234,0.306,0.266c0,0.089-0.108,0.089-0.169,0.089
	c-0.201,0-0.862-0.041-1.43-0.041c-0.555,0-1.199,0.041-1.466,0.041c-0.125,0-0.233,0-0.233-0.061c0-0.116,0.258-0.206,0.35-0.294
	c0.552-0.378,0.657-1.546,0.657-3.157v-2.922c0-3.672-1.301-4.63-2.795-4.63c-1.896,0-3.196,2.118-3.196,4.662v3.321
	c0,1.602,0.085,2.323,0.639,2.746c0.162,0.157,0.298,0.221,0.298,0.273c0,0.061-0.045,0.061-0.136,0.061
	c-0.287,0-0.947-0.041-1.454-0.041c-0.512,0-1.175,0.041-1.473,0.041c-0.089,0-0.145,0-0.145-0.114c0-0.064,0.145-0.137,0.326-0.241
	c0.544-0.403,0.624-1.876,0.624-3.088v-4.847c0-1.671-0.281-1.973-0.604-2.099c-0.132-0.031-0.213-0.136-0.213-0.209
	c0-0.088,0.124-0.097,0.213-0.105L184.792,282.492z"/>
<path fill="#022169" d="M191.621,293.917c-0.556,0-1.2,0.009-1.465,0.009c-0.125-0.009-0.306,0-0.407-0.214
	c0.065-0.342,0.399-0.35,0.407-0.43c0.479-0.266,0.612-1.41,0.599-3.02v-2.931c-0.028-3.647-1.236-4.457-2.633-4.465
	c-1.724,0-3.012,1.985-3.028,4.505v3.321c0,1.603,0.117,2.275,0.572,2.621c0.19,0.173,0.298,0.125,0.386,0.398
	c0,0.214-0.273,0.214-0.314,0.214c-0.302,0-0.966-0.009-1.454-0.009c-0.511,0-1.155,0.009-1.473,0.009
	c-0.069,0-0.318-0.048-0.318-0.266c0.06-0.29,0.249-0.242,0.386-0.378c0.431-0.266,0.592-1.747,0.564-2.964v-4.843
	c0-1.663-0.27-1.84-0.48-1.936c-0.197-0.04-0.322-0.185-0.333-0.363c0.044-0.302,0.293-0.241,0.321-0.282l1.779-0.556l0.23-0.089
	v0.242l-0.145,2.006c0.636-1.631,2.142-2.492,3.66-2.492c1.925,0,4.03,1.135,4.03,4.327v4.244c0.008,2.404,0.121,2.529,0.479,2.706
	c0.214,0.137,0.346,0.157,0.415,0.402c-0.069,0.274-0.29,0.242-0.35,0.242C192.832,293.926,192.188,293.917,191.621,293.917
	 M191.105,287.331v2.931c-0.032,1.61-0.056,2.814-0.721,3.262c-0.052,0.04-0.092,0.072-0.137,0.072c0.287,0,0.866-0.032,1.373-0.032
	c0.459,0,0.978,0.032,1.252,0.032c-0.012,0-0.04-0.032-0.06-0.032c-0.536-0.282-0.645-0.644-0.645-2.988v-4.244
	c-0.016-3.035-1.895-3.994-3.691-3.994c-1.517,0-2.983,0.911-3.627,2.811l-0.225-0.173v-2.267l-1.563,0.5h-0.049
	c0.024,0.016,0.049,0.04,0.076,0.04c0.423,0.185,0.721,0.564,0.705,2.226v4.843c-0.02,1.232-0.032,2.722-0.705,3.205
	c-0.028,0.04-0.076,0.072-0.096,0.072c0.326,0,0.866-0.032,1.292-0.032c0.403,0,0.894,0.032,1.208,0.032c0,0-0.024,0-0.024-0.032
	c-0.633-0.488-0.709-1.268-0.709-2.871v-3.321c0-2.581,1.321-4.807,3.362-4.839C189.741,282.532,191.105,283.635,191.105,287.331"/>
<path fill="#022169" d="M195.409,283.684c-0.25,0-0.338,0-0.338-0.145c0-0.076,0.06-0.153,0.29-0.29
	c0.922-0.596,1.808-1.614,2.094-3.08c0.049-0.185,0.109-0.302,0.19-0.302c0.08,0,0.097,0.04,0.097,0.274v2.999h1.554
	c0.177,0,0.246,0.036,0.246,0.068c0,0-0.02,0.089-0.02,0.145l-0.049,0.33h-1.731v3.785c0,3.109,0.164,5.697,1.264,6.047
	c0.093,0.008,0.121,0.048,0.121,0.081c0,0.064-0.076,0.089-0.306,0.089c-0.379,0.028-0.748,0.048-1.103,0.048
	c-0.906,0-1.281-0.209-1.281-2.444v-7.605H195.409z"/>
<path fill="#022169" d="M196.258,291.288l0.177-7.476h-1.027v-0.129v-0.173l1.199,0.173v7.605c0.045,2.275,0.274,2.235,1.108,2.275
	c0.309,0,0.644-0.016,0.962-0.04c-1.038-0.721-1.091-3.164-1.115-6.063l0.177-3.95l1.558,0.157l0.06-0.363v-0.032
	c-0.012,0.025-0.032,0.025-0.065,0.025l-1.731-0.157v-2.67c-0.358,1.369-1.187,2.343-2.105,2.903
	c-0.125,0.077-0.177,0.137-0.19,0.137h0.141v0.173v0.129c-0.193,0-0.515,0-0.515-0.274c0-0.165,0.137-0.282,0.374-0.427
	c0.878-0.579,1.739-1.566,2.013-2.971c0.056-0.186,0.085-0.383,0.363-0.431c0.245,0,0.261,0.245,0.261,0.431l-0.164,2.85h1.554
	c0.17,0,0.391,0,0.398,0.258v0.105l-0.221,0.459l-1.567-0.129v3.776c-0.027,3.097,0.246,5.693,1.132,5.89
	c0.105,0.012,0.262,0.125,0.258,0.245c-0.04,0.254-0.282,0.254-0.475,0.254c-0.366,0.028-0.741,0.06-1.102,0.06
	C196.721,293.91,196.258,293.507,196.258,291.288"/>
<path fill="#022169" d="M203.485,286.591c-0.045,0.321-0.105,0.72-0.105,1.062c0,3.188,0.983,5.765,3.772,5.765
	c2.669,0,3.917-3.124,4.03-3.833c0.024-0.153,0.101-0.322,0.234-0.322c0.1,0,0.153,0.121,0.153,0.209c0,0.165-0.052,0.37-0.1,0.556
	c-0.648,2.541-2.649,4.018-5.025,4.018c-2.725,0-4.774-2.786-4.774-6.088c0-2.81,1.896-5.765,4.993-5.765
	c2.282,0,4.509,1.49,4.714,4.397H203.485z M209.686,286.071c0-2.101-1.256-3.361-2.907-3.361c-1.889,0-2.879,1.26-3.266,3.361
	H209.686z"/>
<path fill="#022169" d="M201.496,287.959c0-2.895,1.945-5.954,5.169-5.954c2.359,0,4.683,1.566,4.711,4.759h-7.754
	c-0.024,0.293-0.065,0.607-0.065,0.889c0.008,3.188,0.943,5.6,3.595,5.6c2.492,0.028,3.772-3.047,3.865-3.667
	c0.016-0.185,0.084-0.447,0.415-0.475c0.222,0,0.31,0.234,0.31,0.363c0,0.193-0.052,0.387-0.104,0.596
	c-0.665,2.585-2.742,4.151-5.194,4.151C203.566,294.207,201.496,291.301,201.496,287.959 M201.843,287.959
	c0,3.229,2.013,5.951,4.601,5.959c2.291,0,4.204-1.457,4.868-3.958c0.036-0.137,0.064-0.322,0.064-0.471
	c-0.012,0.032-0.016,0.072-0.016,0.109c-0.137,0.76-1.396,3.966-4.207,3.998c-2.951-0.032-3.942-2.754-3.962-5.942
	c0-0.355,0.077-0.765,0.101-1.063h0.193v-0.162l7.722,0.169c-0.214-2.842-2.331-4.259-4.542-4.259
	C203.703,282.339,201.843,285.181,201.843,287.959 M211.405,289.449l0.028-0.016C211.433,289.433,211.417,289.433,211.405,289.449
	 M203.349,286.031c0.37-2.138,1.437-3.499,3.43-3.499c1.751,0,3.064,1.361,3.077,3.539h-0.169v0.157L203.349,286.031z
	 M203.514,285.886h5.991c-0.085-1.916-1.224-3.019-2.726-3.019C204.999,282.867,204.078,284.018,203.514,285.886"/>
<path fill="#022169" d="M218.796,284.312c-0.209-0.205-0.471-0.555-0.958-0.555c-1.474,0-1.953,2.197-1.953,5.628v1.309
	c0,1.602,0.165,2.609,0.861,2.725c0.193,0,0.298,0.098,0.298,0.242c0,0.114-0.049,0.114-0.153,0.114
	c-0.282,0-0.934-0.041-1.57-0.041c-0.62,0-1.265,0.041-1.559,0.041c-0.075,0-0.2-0.041-0.2-0.114c0-0.065,0.125-0.184,0.301-0.249
	c0.556-0.371,0.701-1.116,0.701-3.117v-6.276c0-0.419-0.293-0.713-0.58-0.841c-0.156-0.037-0.269-0.105-0.269-0.166
	c0-0.02,0.113-0.076,0.217-0.137l1.853-0.608v3.032h0.019c0.806-2.122,1.853-3.104,3.604-3.104L218.796,284.312z"/>
<path fill="#022169" d="M215.322,293.91c-0.592,0-1.245,0.016-1.559,0.016c-0.129-0.008-0.313,0-0.366-0.266
	c0.003-0.242,0.18-0.31,0.366-0.427c0.467-0.254,0.657-0.938,0.636-2.939v-6.276c0-0.35-0.23-0.568-0.467-0.664
	c-0.193-0.097-0.334-0.097-0.382-0.342c0.048-0.262,0.213-0.214,0.325-0.282l2.057-0.712v0.249l-0.133,2.613
	c0.785-1.888,1.872-2.894,3.592-2.874h0.233l-0.056,0.225l-0.608,2.149l-0.085,0.294l-0.218-0.225
	c-0.205-0.234-0.435-0.515-0.821-0.515c-1.252,0.008-1.783,2.001-1.783,5.451v1.308c-0.004,1.614,0.201,2.5,0.725,2.541
	c0.217,0,0.459,0.185,0.439,0.427c0,0.197-0.258,0.266-0.326,0.266C216.603,293.926,215.934,293.91,215.322,293.91 M214.058,283.012
	c0.343,0.165,0.685,0.499,0.685,1.007v6.276c0,1.989-0.125,2.81-0.81,3.229c-0.056,0.04-0.104,0.072-0.137,0.072
	c0.29,0,0.934-0.032,1.526-0.032c0.611,0,1.236,0.032,1.53,0.032c-0.02,0-0.036,0-0.129-0.032c-0.906-0.193-1.006-1.281-1.027-2.871
	v-1.308c0.021-3.414,0.435-5.717,2.142-5.786c0.411,0.008,0.677,0.206,0.874,0.411l0.455-1.671c-1.51,0.077-2.444,1.015-3.362,3.137
	l-0.209-0.177v-2.794l-1.574,0.507H214.058z M218.797,284.319l0.124-0.104L218.797,284.319z"/>
<path fill="#022169" d="M222.802,285.298h0.069c0.684-1.913,1.892-3.096,3.889-3.104c2.633,0,4.86,2.495,4.86,5.765
	c0,3.342-2.029,6.087-5.029,6.087c-1.57-0.052-3.12-1.183-3.599-2.174h-0.028v3.265c0,1.095,0.028,1.965,0.673,2.472
	c0.193,0.129,0.369,0.177,0.369,0.254c0,0.089-0.064,0.109-0.221,0.109c-0.165,0-0.475-0.069-1.402-0.069
	c-1.139,0-1.413,0.069-1.501,0.069c-0.177,0-0.27-0.036-0.27-0.089c0-0.097,0.036-0.137,0.443-0.31
	c0.346-0.137,0.584-1.771,0.584-3.95v-8.463c0-1.554-0.367-1.776-0.624-1.807c-0.109,0-0.173-0.049-0.173-0.105
	c0-0.072,0.044-0.109,0.185-0.137c0.684-0.121,1.304-0.382,1.775-0.62V285.298z M222.963,287.895c0,3.059,0.838,5.62,3.563,5.62
	c2.609,0,3.406-2.649,3.406-5.62c0-2.818-1.046-5.185-3.406-5.185C223.941,282.71,222.963,285.298,222.963,287.895"/>
<path fill="#022169" d="M222.384,298.081c-1.163,0-1.369,0.04-1.502,0.04c-0.185-0.024-0.374,0.049-0.475-0.245
	c0.04-0.238,0.206-0.286,0.564-0.439c0.165,0,0.548-1.651,0.507-3.813v-8.463c-0.023-1.554-0.345-1.622-0.483-1.651
	c-0.109,0-0.298-0.061-0.314-0.262c0-0.177,0.194-0.258,0.33-0.297c0.633-0.137,1.256-0.379,1.723-0.612l0.245-0.108v0.261v2.054
	c0.712-1.535,1.932-2.541,3.772-2.541c2.782,0,5.036,2.629,5.045,5.955c-0.009,3.406-2.065,6.248-5.206,6.261
	c-1.505-0.06-2.927-1.027-3.462-1.912v2.83c0,1.095,0.045,1.888,0.609,2.315c0.168,0.157,0.362,0.089,0.446,0.411
	c0,0.185-0.253,0.258-0.398,0.258C223.571,298.121,223.31,298.081,222.384,298.081 M221.812,285.161v8.463
	c-0.041,2.218-0.137,3.772-0.681,4.115c-0.117,0.02-0.177,0.048-0.246,0.068c0.109-0.02,0.484-0.06,1.498-0.06
	c0.677,0,1.051,0.04,1.252,0.04c-0.028,0-0.076-0.04-0.097-0.048c-0.736-0.588-0.752-1.507-0.752-2.601l0.177-3.438l0.177,0.097
	c0.43,0.93,1.969,2.053,3.45,2.122c2.874-0.008,4.844-2.658,4.844-5.959c0-3.209-2.17-5.62-4.674-5.62
	c-1.832,0.028-2.951,1.035-3.781,2.842v0.117h-0.056c-0.008,0.06-0.044,0.109-0.052,0.177h-0.068v-0.177h-0.157v-2.549
	c-0.411,0.194-0.91,0.362-1.425,0.5C221.522,283.385,221.82,283.813,221.812,285.161 M222.786,287.895
	c0-2.617,1.014-5.331,3.74-5.362c2.529,0.031,3.583,2.532,3.583,5.362c0,2.971-0.805,5.766-3.583,5.766
	C223.636,293.66,222.786,290.954,222.786,287.895 M226.526,293.35c2.432,0,3.225-2.484,3.225-5.455c0-2.802-1.019-5.028-3.225-5.028
	c-2.412,0-3.398,2.46-3.398,5.028C223.128,290.954,223.97,293.35,226.526,293.35"/>
<path fill="#022169" d="M238.907,284.312c-0.245-0.205-0.504-0.555-0.975-0.555c-1.486,0-1.969,2.197-1.969,5.628v1.309
	c0,1.602,0.173,2.609,0.866,2.725c0.209,0,0.302,0.098,0.302,0.242c0,0.114-0.052,0.114-0.137,0.114
	c-0.298,0-0.942-0.041-1.567-0.041c-0.615,0-1.276,0.041-1.578,0.041c-0.085,0-0.205-0.041-0.205-0.114
	c0-0.065,0.121-0.184,0.302-0.249c0.568-0.371,0.713-1.116,0.713-3.117v-6.276c0-0.419-0.31-0.713-0.596-0.841
	c-0.133-0.037-0.269-0.105-0.269-0.166c0-0.02,0.113-0.076,0.238-0.137l1.84-0.608v3.032h0.024c0.802-2.122,1.848-3.104,3.592-3.104
	L238.907,284.312z"/>
<path fill="#022169" d="M235.427,293.91c-0.615,0-1.26,0.016-1.578,0.016c-0.133-0.008-0.326,0-0.399-0.266
	c0.032-0.241,0.209-0.31,0.387-0.426c0.467-0.254,0.66-0.939,0.66-2.939v-6.277c0-0.35-0.242-0.567-0.483-0.692
	c-0.181-0.068-0.306-0.068-0.387-0.314c0.068-0.262,0.221-0.213,0.334-0.282l2.061-0.712v0.249l-0.149,2.613
	c0.785-1.888,1.876-2.894,3.612-2.874h0.224l-0.048,0.225l-0.616,2.15l-0.069,0.294l-0.224-0.225
	c-0.218-0.234-0.459-0.515-0.822-0.515c-1.248,0.008-1.796,2.001-1.796,5.451v1.309c-0.012,1.614,0.225,2.5,0.721,2.541
	c0.221,0,0.458,0.184,0.442,0.426c0,0.218-0.262,0.266-0.305,0.266C236.684,293.926,236.024,293.91,235.427,293.91 M234.128,283.012
	c0.346,0.165,0.713,0.499,0.713,1.006v6.277c0,1.989-0.141,2.81-0.826,3.228c-0.056,0.04-0.109,0.073-0.137,0.073
	c0.29,0,0.943-0.032,1.55-0.032c0.584,0,1.204,0.032,1.518,0.032c-0.012,0-0.056,0-0.137-0.032c-0.914-0.193-0.994-1.28-1.031-2.87
	v-1.309c0.037-3.414,0.418-5.717,2.154-5.786c0.387,0.008,0.677,0.206,0.866,0.411l0.454-1.671c-1.51,0.077-2.431,1.014-3.366,3.137
	l-0.197-0.178v-2.794l-1.59,0.507H234.128z M238.907,284.32l0.108-0.105L238.907,284.32z"/>
<path fill="#022169" d="M243.557,289.884c0,2.412,0.314,3.478,0.736,3.631c0.158,0.048,0.279,0.081,0.279,0.169
	c0,0.088-0.121,0.088-0.21,0.088c-0.298,0-0.942-0.04-1.469-0.04c-0.89,0-1.288,0.04-1.469,0.04c-0.08,0-0.133,0-0.133-0.088
	c0-0.089,0.121-0.169,0.302-0.266c0.604-0.342,0.645-1.123,0.645-3.06v-6.321c0-0.431-0.29-0.499-0.58-0.684
	c-0.089-0.049-0.145-0.056-0.145-0.145c0-0.031,0.036-0.069,0.093-0.097l1.953-0.62V289.884z M243.718,279.855
	c0,0.665-0.423,1.046-0.826,1.046c-0.382,0-0.825-0.382-0.825-1.046c0-0.656,0.443-1.035,0.825-1.035
	C243.295,278.82,243.718,279.198,243.718,279.855"/>
<path fill="#022169" d="M242.893,293.91c-0.89,0-1.253,0.016-1.47,0.016c-0.04,0-0.31-0.008-0.31-0.242
	c0.02-0.266,0.229-0.315,0.398-0.403c0.467-0.242,0.572-0.974,0.556-2.923v-6.321c0-0.33-0.177-0.322-0.479-0.539
	c-0.069-0.036-0.246-0.065-0.254-0.29c0-0.185,0.177-0.217,0.233-0.257l2.15-0.701v7.633c-0.016,2.399,0.395,3.466,0.616,3.478
	c0.117,0.056,0.374,0.056,0.415,0.322c-0.077,0.29-0.314,0.233-0.387,0.242C244.056,293.926,243.391,293.91,242.893,293.91
	 M244.45,293.596h-0.016H244.45z M244.12,293.596c-0.515-0.363-0.729-1.449-0.741-3.712v-7.174l-1.611,0.515
	c0.25,0.161,0.673,0.286,0.661,0.813v6.321c-0.024,1.924-0.041,2.778-0.757,3.205c-0.032,0-0.069,0.033-0.08,0.033
	c0.245,0,0.628-0.033,1.301-0.033C243.307,293.563,243.786,293.596,244.12,293.596 M241.89,279.855c0-0.732,0.499-1.179,1.003-1.179
	c0.527,0,1.006,0.447,1.006,1.179c-0.008,0.712-0.479,1.195-1.006,1.195C242.389,281.05,241.89,280.567,241.89,279.855
	 M242.236,279.855c0,0.575,0.399,0.862,0.657,0.862c0.29,0,0.664-0.287,0.664-0.862c0-0.576-0.374-0.869-0.664-0.869
	C242.635,278.986,242.236,279.279,242.236,279.855"/>
<path fill="#022169" d="M254.471,284.803c-0.069,0.201-0.117,0.274-0.165,0.274c-0.073,0-0.121-0.149-0.209-0.499
	c-0.31-1.32-1.84-1.868-2.984-1.868c-1.22,0-2.556,0.664-2.556,2.246c0,2.142,2.021,2.207,3.345,2.336
	c1.473,0.177,3.462,0.41,3.462,2.814c0,2.807-2.52,3.941-4.416,3.941c-1.562,0-3.161-0.168-4.55-1.135l0.387-1.418
	c0.125-0.555,0.194-0.724,0.305-0.724c0.077,0,0.125,0.169,0.21,0.443c0.503,1.804,2.23,2.303,3.603,2.303
	c1.301,0,3.06-0.499,3.06-2.472c0-2.15-1.969-2.158-3.402-2.279c-1.453-0.173-3.41-0.954-3.41-3.125
	c0-2.628,2.475-3.446,4.211-3.446c1.208,0,2.472,0.298,3.564,0.886L254.471,284.803z"/>
<path fill="#022169" d="M246.218,292.891l0.387-1.437c0.153-0.556,0.125-0.773,0.488-0.838c0.338,0.077,0.245,0.282,0.383,0.564
	c0.446,1.711,2.098,2.17,3.43,2.17c1.272-0.012,2.883-0.439,2.883-2.306c0-1.982-1.788-1.974-3.233-2.103
	c-1.49-0.177-3.567-1.034-3.575-3.281c0.008-2.786,2.597-3.656,4.384-3.656c1.248,0,2.541,0.334,3.725,1.107l-0.439,1.74
	c-0.093,0.161-0.093,0.329-0.342,0.387c-0.334-0.077-0.27-0.29-0.37-0.624c-0.286-1.22-1.711-1.747-2.822-1.747
	c-1.168,0.007-2.364,0.632-2.388,2.081c0,1.993,1.835,2.021,3.184,2.158c1.465,0.185,3.627,0.459,3.627,3
	c0,2.895-2.633,4.115-4.589,4.115C249.37,294.22,247.704,294.023,246.218,292.891 M246.927,291.55l-0.427,1.241
	c1.332,0.893,2.895,1.127,4.449,1.127c1.832-0.008,4.252-1.127,4.252-3.813c0-2.283-1.825-2.472-3.334-2.669
	c-1.26-0.096-3.478-0.201-3.478-2.488c0-1.691,1.442-2.415,2.726-2.415c1.183,0,2.806,0.579,3.156,2.005
	c0.02,0.077,0.024,0.136,0.036,0.204l0.536-1.533c-1.062-0.556-2.295-0.87-3.479-0.87c-1.702,0-4.026,0.801-4.026,3.321
	c-0.012,2.025,1.824,2.794,3.241,2.931c1.361,0.117,3.547,0.166,3.547,2.453c0,2.109-1.88,2.616-3.221,2.616
	c-1.397,0-3.245-0.508-3.76-2.392c-0.044-0.08-0.052-0.145-0.065-0.217C247.048,291.152,246.987,291.317,246.927,291.55"/>
<path fill="#022169" d="M259.496,286.591c-0.065,0.321-0.117,0.72-0.117,1.062c0,3.188,0.987,5.765,3.76,5.765
	c2.666,0,3.958-3.124,4.046-3.833c0.008-0.153,0.093-0.322,0.25-0.322c0.08,0,0.121,0.121,0.121,0.209
	c0,0.165-0.041,0.37-0.097,0.556c-0.632,2.541-2.641,4.018-5.004,4.018c-2.746,0-4.775-2.786-4.775-6.088
	c0-2.81,1.9-5.765,4.985-5.765c2.298,0,4.505,1.49,4.714,4.397H259.496z M265.684,286.071c0-2.101-1.236-3.361-2.903-3.361
	c-1.876,0-2.866,1.26-3.265,3.361H265.684z"/>
<path fill="#022169" d="M257.507,287.959c0-2.895,1.936-5.954,5.157-5.954c2.383,0,4.67,1.566,4.715,4.759h-7.754
	c-0.045,0.273-0.073,0.607-0.073,0.889c0,3.188,0.953,5.6,3.587,5.6c2.504,0.028,3.796-3.047,3.869-3.692
	c0.04-0.161,0.097-0.423,0.427-0.451c0.229,0,0.297,0.234,0.297,0.363c0,0.173-0.039,0.387-0.104,0.596
	c-0.664,2.585-2.726,4.151-5.174,4.151C259.569,294.207,257.507,291.301,257.507,287.959 M257.87,287.959
	c0,3.229,2,5.951,4.585,5.959c2.295,0,4.207-1.457,4.852-3.958c0.052-0.137,0.073-0.314,0.073-0.459
	c-0.012,0.028-0.02,0.06-0.02,0.097c-0.117,0.76-1.39,3.966-4.219,3.998c-2.951-0.032-3.941-2.754-3.941-5.942
	c0-0.355,0.056-0.765,0.104-1.103l0.181,0.04v-0.162l7.738,0.169c-0.221-2.842-2.335-4.259-4.558-4.259
	C259.71,282.339,257.87,285.181,257.87,287.959 M259.335,286.031c0.395-2.138,1.473-3.499,3.438-3.499
	c1.759,0,3.084,1.361,3.084,3.539h-0.173v0.157L259.335,286.031z M259.516,285.886h5.991c-0.073-1.916-1.224-3.019-2.734-3.019
	C260.993,282.867,260.075,284.018,259.516,285.886"/>
<path fill="#022169" d="M145.905,282.23c2.665,0,5.217,2.347,5.217,5.931c0,3.587-2.552,5.95-5.217,5.95
	c-2.665,0-5.226-2.364-5.226-5.95C140.679,284.578,143.239,282.23,145.905,282.23 M145.905,293.563c2.613,0,3.547-2.452,3.547-5.402
	c0-2.931-0.934-5.412-3.547-5.412c-2.617,0-3.563,2.48-3.536,5.412C142.342,291.112,143.288,293.563,145.905,293.563"/>
<path fill="#022169" d="M140.497,288.16c0.009-3.631,2.634-6.095,5.408-6.095v0.165v0.157c-2.557,0-5.053,2.287-5.061,5.773
	c0.009,3.511,2.504,5.766,5.061,5.786c2.557-0.02,5.056-2.275,5.056-5.786c0-3.486-2.499-5.773-5.056-5.773v-0.157v-0.165
	c2.773,0,5.39,2.464,5.39,6.095c0,3.657-2.617,6.108-5.39,6.128C143.131,294.268,140.506,291.817,140.497,288.16 M142.177,288.229
	v-0.06v-0.056v-0.028c0-2.91,0.974-5.491,3.728-5.503c2.737,0.012,3.7,2.593,3.708,5.503v0.125v0.061
	c-0.008,2.871-0.962,5.463-3.708,5.463v-0.169v-0.145c2.443,0,3.357-2.294,3.357-5.149v-0.109v-0.077
	c-0.012-2.902-0.914-5.149-3.357-5.149c-2.432,0-3.354,2.247-3.37,5.149c0,0,0,0.069,0.004,0.085l-0.004,0.06
	c0.016,2.895,0.921,5.19,3.37,5.19v0.145v0.169C143.151,293.732,142.177,291.14,142.177,288.229"/>
<path fill="#022169" d="M157.906,284.312c-0.214-0.205-0.471-0.555-0.951-0.555c-1.473,0-1.964,2.197-1.964,5.628v1.309
	c0,1.602,0.169,2.609,0.885,2.725c0.177,0,0.282,0.098,0.282,0.242c0,0.114-0.049,0.114-0.137,0.114c-0.29,0-0.95-0.041-1.57-0.041
	c-0.616,0-1.28,0.041-1.578,0.041c-0.069,0-0.21-0.041-0.21-0.114c0-0.065,0.141-0.184,0.31-0.249
	c0.543-0.371,0.725-1.116,0.725-3.117v-6.276c0-0.419-0.31-0.713-0.608-0.841c-0.144-0.037-0.265-0.105-0.265-0.166
	c0-0.02,0.096-0.076,0.221-0.137l1.831-0.608v3.032h0.056c0.798-2.122,1.829-3.104,3.583-3.104L157.906,284.312z"/>
<path fill="#022169" d="M154.452,293.91c-0.615,0-1.26,0.016-1.578,0.016c-0.125-0.008-0.314,0-0.387-0.266
	c0.04-0.242,0.209-0.31,0.387-0.427c0.459-0.254,0.644-0.938,0.644-2.939v-6.276c0-0.35-0.245-0.568-0.471-0.664
	c-0.186-0.097-0.31-0.097-0.395-0.342c0.052-0.262,0.221-0.214,0.334-0.282l2.07-0.712v0.249l-0.145,2.613
	c0.777-1.888,1.868-2.894,3.607-2.874h0.213l-0.056,0.225l-0.595,2.149l-0.08,0.294l-0.229-0.225
	c-0.206-0.234-0.431-0.515-0.814-0.515c-1.24,0.008-1.787,2.001-1.787,5.451v1.308c-0.008,1.614,0.209,2.5,0.709,2.541
	c0.233,0,0.474,0.185,0.455,0.427c0,0.197-0.258,0.266-0.31,0.266C155.717,293.926,155.056,293.91,154.452,293.91 M153.172,283.012
	c0.335,0.165,0.697,0.499,0.697,1.007v6.276c-0.028,1.989-0.141,2.81-0.821,3.229c-0.061,0.04-0.105,0.072-0.145,0.072
	c0.302,0,0.934-0.032,1.55-0.032c0.588,0,1.216,0.032,1.522,0.032c-0.008,0-0.049,0-0.121-0.032
	c-0.918-0.193-1.011-1.281-1.031-2.871v-1.308c0.02-3.414,0.415-5.717,2.134-5.786c0.395,0.008,0.685,0.206,0.882,0.411l0.442-1.671
	c-1.518,0.077-2.427,1.015-3.346,3.137l-0.205-0.177v-2.794l-1.578,0.507H153.172z M157.907,284.319l0.125-0.104L157.907,284.319z"
	/>
<path fill="#022169" d="M134.181,283.209h1.304v-1.055c0-2.717,2.045-3.688,3.994-4.045l-0.471,1.823
	c-0.242-0.386-0.629-0.809-1.204-0.809c-0.52,0-1.006,0.587-1.006,1.437v2.649h1.643l-0.121,0.527h-1.522v5.166
	c0,2.367,0.201,3.989,0.689,4.469c0.156,0.193,0.426,0.253,0.426,0.362c0,0.077-0.073,0.104-0.177,0.104
	c-0.108,0-0.467-0.056-1.59-0.056c-0.511,0-1.007,0.056-1.256,0.056c-0.149,0-0.197-0.027-0.197-0.063
	c0-0.072,0.133-0.114,0.257-0.258c0.467-0.439,0.536-1.172,0.536-1.885v-7.895h-1.429L134.181,283.209z"/>
<path fill="#022169" d="M136.146,293.947c-0.5,0-0.979,0.049-1.256,0.049c-0.117,0-0.335-0.021-0.363-0.222
	c0.064-0.266,0.185-0.226,0.298-0.355c0.395-0.403,0.499-1.095,0.499-1.795l0.161-7.742h-1.638l0.04-0.197l0.133-0.508l0.161,0.032
	v-0.197l1.144,0.197v-1.055c-0.033-2.818,2.153-3.861,4.13-4.223l0.274-0.028l-0.093,0.253l-0.551,2.187l-0.214-0.36
	c-0.25-0.341-0.596-0.704-1.067-0.704c-0.371,0-0.833,0.479-0.833,1.28l-0.173,2.452h1.832l-0.04,0.214l-0.286,0.656l-1.332-0.145
	v5.165c-0.013,2.36,0.233,3.99,0.632,4.352c0.113,0.165,0.383,0.165,0.479,0.479c-0.004,0.214-0.242,0.262-0.346,0.262
	C137.591,293.995,137.268,293.947,136.146,293.947 M134.274,283.571l1.401,0.165v7.887c0,0.72-0.093,1.494-0.6,2
	c-0.027,0.029-0.027,0.037-0.04,0.037c0.258,0,0.677-0.037,1.112-0.037c0.789,0,1.211,0.029,1.425,0.037
	c-0.065-0.037-0.137-0.097-0.214-0.174c-0.568-0.595-0.716-2.197-0.716-4.585l0.157-5.342l1.345,0.125l0.073-0.33l-1.574-0.145
	v-2.649c0-0.901,0.494-1.594,1.163-1.594c0.523,0,0.886,0.266,1.127,0.58l0.31-1.224c-1.809,0.371-3.568,1.337-3.568,3.833
	l-0.189,1.22h-1.168L134.274,283.571z"/>
<path fill="#022169" d="M86.086,281.212c0.121,0.532,0.342,1.381,0.342,1.497c0,0.041-0.061,0.069-0.113,0.069
	c-0.045,0-0.125-0.125-0.173-0.214c-0.889-1.602-2.959-2.073-5.258-2.073h-2.738v5.601h2.839c2.129,0,2.664-0.257,3.112-0.733
	c0.189-0.197,0.298-0.451,0.346-0.668c0.04-0.113,0.084-0.193,0.121-0.193c0.089,0,0.105,0.137,0.105,0.314v3.664
	c0,0.104-0.016,0.117-0.04,0.117c-0.032,0-0.141-0.124-0.185-0.31c-0.221-0.821-1.083-1.663-3.378-1.663h-2.919v3.459
	c0,1.844,0.129,3.076,0.923,3.519c0.088,0.028,0.18,0.105,0.18,0.177c0,0.065-0.052,0.076-0.18,0.076
	c-0.19,0-0.576-0.069-1.671-0.069c-1.035,0-1.667,0.069-1.805,0.069c-0.108,0-0.124-0.012-0.124-0.076
	c0-0.061,0.073-0.113,0.141-0.113c0.934-0.407,1.011-1.7,1.011-3.556v-8.539c0-0.692-0.161-1.047-0.685-1.36
	c-0.069,0-0.161-0.036-0.161-0.154c0-0.069,0.093-0.108,0.395-0.108h9.598L86.086,281.212z"/>
<path fill="#022169" d="M77.397,293.946c-1.035,0-1.638,0.061-1.832,0.061c-0.089,0-0.29-0.089-0.29-0.233
	c0.069-0.25,0.194-0.226,0.266-0.266c0.789-0.315,0.918-1.526,0.902-3.402v-8.54c-0.007-0.692-0.121-0.917-0.535-1.2
	c-0.093-0.012-0.298-0.08-0.302-0.314c0.052-0.274,0.262-0.245,0.563-0.274l9.78,0.129l0.31,1.256l-0.174,0.049l0.174-0.049
	c0.124,0.548,0.334,1.369,0.334,1.547c0,0.157-0.189,0.233-0.29,0.233c-0.274-0.076-0.234-0.194-0.306-0.289
	c-0.845-1.518-2.834-1.997-5.112-1.997l-2.565-0.185l-0.173,5.443h2.838c2.13-0.008,2.565-0.234,2.98-0.637
	c0.165-0.201,0.274-0.426,0.322-0.612c0.06-0.137,0.02-0.249,0.277-0.306c0.322,0.056,0.266,0.306,0.278,0.45v3.665
	c0,0.105-0.036,0.282-0.218,0.282c-0.29-0.098-0.246-0.214-0.338-0.427c-0.23-0.765-0.967-1.526-3.221-1.526l-2.746-0.186v3.459
	c-0.016,1.868,0.149,3.028,0.834,3.362c0.113,0.069,0.249,0.125,0.266,0.334c0,0.173-0.245,0.233-0.35,0.233
	C78.838,294.007,78.481,293.946,77.397,293.946 M78.903,293.66c-0.833-0.524-0.93-1.763-0.93-3.583l0.173-3.595h2.919
	c2.077-0.02,3.064,0.656,3.442,1.465v-2.903c-0.065,0.137-0.161,0.282-0.285,0.439c-0.488,0.5-1.108,0.762-3.238,0.762l-3.012-0.153
	l0.173-5.749h2.738c2.214,0,4.252,0.411,5.27,1.908c-0.069-0.294-0.157-0.733-0.245-1.027l-0.141-1.115h-9.599
	c-0.024,0-0.055,0.02-0.085,0.02c0.528,0.286,0.705,0.745,0.705,1.437v8.54c-0.008,1.691-0.028,3-0.881,3.555
	c0.318-0.008,0.821-0.036,1.49-0.036C78.244,293.624,78.674,293.66,78.903,293.66"/>
<path fill="#022169" d="M90.18,282.532v7.24c0,2.012,0.724,3.792,2.762,3.792c2.194,0,3.165-2.608,3.165-5.668v-2.11
	c0-1.603-0.137-1.973-0.568-2.227c-0.117-0.06-0.278-0.108-0.278-0.233c0-0.069,0.032-0.069,0.161-0.117l2.001-0.677v7.24
	c0,1.046,0.045,3.059,0.616,3.667c0.113,0.156,0.181,0.185,0.181,0.262c0,0.073-0.076,0.08-0.278,0.08h-1.288l-0.532-2.238
	c-0.951,1.82-1.905,2.568-3.776,2.568c-2.259,0-3.6-1.679-3.6-4.034v-4.895c0-1.247-0.145-1.513-0.507-1.61
	c-0.197-0.061-0.318-0.109-0.318-0.217c0-0.097,0.097-0.105,0.197-0.145L90.18,282.532z"/>
<path fill="#022169" d="M92.346,294.289c-2.371,0-3.764-1.797-3.764-4.22v-4.887c-0.013-1.288-0.15-1.397-0.399-1.445
	c-0.189-0.052-0.427-0.137-0.427-0.383c0.036-0.242,0.218-0.274,0.306-0.282l2.05-0.684l0.221-0.07v7.453
	c0.016,1.977,0.72,3.648,2.608,3.648c2.01,0,2.988-2.48,2.988-5.523v-2.11c0-1.618-0.133-1.892-0.488-2.078
	c-0.068-0.04-0.329-0.1-0.354-0.383c0-0.165,0.173-0.245,0.27-0.254l2.218-0.764v7.464c-0.004,1.038,0.089,3.08,0.584,3.579
	c0.101,0.125,0.214,0.137,0.242,0.351c-0.065,0.273-0.29,0.225-0.459,0.225l-1.466-0.117l-0.427-1.807
	c-0.878,1.562-1.884,2.287-3.66,2.287H92.346z M88.292,283.434c0.454,0.105,0.653,0.516,0.644,1.747v4.887
	c0.009,2.335,1.252,3.858,3.41,3.858c1.82,0,2.685-0.673,3.623-2.472l0.206-0.403l0.117,0.443l0.363,2.13h1.288h0.02
	c-0.02-0.028-0.028-0.06-0.061-0.06c-0.636-0.741-0.652-2.722-0.672-3.793l0.02-7.006l-1.751,0.588
	c0.04,0.02,0.068,0.032,0.117,0.08c0.528,0.302,0.664,0.782,0.664,2.352v2.11c0,3.059-0.971,5.817-3.338,5.837
	c-2.186,0-2.938-1.948-2.958-3.961v-7.006l-1.832,0.608h-0.008C88.171,283.374,88.2,283.385,88.292,283.434"/>
<path fill="#022169" d="M102.246,282.532v2.48h0.044c0.5-1.803,2.061-2.782,3.636-2.782c1.86,0,3.861,1.026,3.861,4.151v4.236
	c0,2.383,0.105,2.617,0.572,2.87c0.177,0.109,0.302,0.214,0.302,0.246c0,0.077-0.109,0.104-0.181,0.104
	c-0.185,0-0.842-0.056-1.413-0.056c-0.56,0-1.212,0.056-1.462,0.056c-0.141,0-0.254-0.027-0.254-0.064
	c0-0.15,0.274-0.21,0.363-0.287c0.568-0.382,0.648-1.574,0.648-3.156v-2.943c0-3.679-1.28-4.638-2.782-4.638
	c-1.895,0-3.197,2.13-3.197,4.67v3.341c0,1.582,0.073,2.316,0.633,2.745c0.169,0.117,0.306,0.205,0.306,0.267
	c0,0.064-0.032,0.064-0.137,0.064c-0.294,0-0.938-0.056-1.445-0.056c-0.54,0-1.184,0.056-1.486,0.056
	c-0.085,0-0.153-0.027-0.153-0.125c0-0.052,0.153-0.117,0.33-0.237c0.56-0.398,0.633-1.9,0.633-3.116v-4.815
	c0-1.671-0.286-1.973-0.596-2.093c-0.145-0.057-0.229-0.153-0.229-0.202c0-0.089,0.141-0.121,0.209-0.137L102.246,282.532z"/>
<path fill="#022169" d="M109.066,293.926c-0.548,0-1.191,0.068-1.461,0.068c-0.142-0.048-0.326,0.052-0.411-0.222
	c0.056-0.354,0.398-0.354,0.411-0.423c0.455-0.274,0.608-1.437,0.58-3.019v-2.943c-0.02-3.671-1.208-4.445-2.605-4.452
	c-1.74,0-3.032,1.973-3.032,4.484v3.342c-0.008,1.582,0.117,2.255,0.584,2.608c0.165,0.153,0.282,0.137,0.366,0.403
	c0,0.186-0.262,0.222-0.314,0.222c-0.302,0-0.946-0.068-1.445-0.068c-0.523,0-1.168,0.068-1.486,0.068
	c-0.092,0-0.334-0.068-0.334-0.282c0.089-0.294,0.27-0.238,0.418-0.374c0.415-0.262,0.58-1.775,0.552-2.979v-4.816
	c0-1.671-0.265-1.86-0.48-1.936c-0.2-0.097-0.321-0.173-0.346-0.383c0.056-0.282,0.306-0.234,0.326-0.273l1.788-0.564l0.242-0.068
	v0.214l-0.165,2.013c0.628-1.603,2.15-2.48,3.671-2.48c1.93,0,4.014,1.144,4.014,4.316v4.234c0.021,2.424,0.13,2.537,0.491,2.734
	c0.214,0.137,0.35,0.157,0.395,0.383c-0.04,0.262-0.25,0.242-0.346,0.262C110.27,293.994,109.639,293.926,109.066,293.926
	 M108.531,287.387v2.943c-0.012,1.582-0.032,2.786-0.704,3.265c-0.049,0.028-0.089,0.056-0.121,0.064
	c0.29,0,0.861-0.036,1.361-0.036c0.451,0,0.962,0.028,1.252,0.036c-0.024-0.008-0.049-0.008-0.06-0.036
	c-0.515-0.286-0.66-0.644-0.644-3.008v-4.234c-0.016-3.028-1.9-3.986-3.689-3.994c-1.51,0-2.999,0.91-3.635,2.794l-0.234-0.168
	v-2.247l-1.554,0.491h-0.045c0.008,0.017,0.045,0.041,0.073,0.041c0.427,0.165,0.725,0.584,0.725,2.246v4.816
	c-0.04,1.264-0.056,2.717-0.725,3.237c-0.028,0.028-0.064,0.056-0.1,0.064c0.334,0,0.854-0.036,1.309-0.036
	c0.383,0,0.865,0.028,1.208,0.036c-0.021-0.008-0.041-0.008-0.057-0.036c-0.608-0.507-0.684-1.3-0.697-2.862v-3.342
	c0-2.568,1.342-4.807,3.387-4.839C107.195,282.581,108.531,283.684,108.531,287.387"/>
<path fill="#022169" d="M122.622,278.108v10.894c0,2.746,0.197,3.998,0.62,4.36c0.128,0.124,0.242,0.234,0.242,0.297
	c0,0.073-0.028,0.121-0.137,0.121c-0.286,0-0.56-0.08-0.809-0.08c-0.278,0-0.564,0.08-0.806,0.08l-0.41-2.395
	c-0.846,1.731-2.069,2.725-3.721,2.725c-2.81,0-4.927-2.423-4.927-5.814c0-3.683,2.206-6.066,5.133-6.066
	c1.491,0,2.807,1.026,3.516,1.911v-2.995c0-0.794-0.113-1.739-0.62-1.957c-0.249-0.076-0.294-0.145-0.294-0.177
	c0-0.077,0.069-0.145,0.145-0.161L122.622,278.108z M114.373,288.297c0,2.513,0.971,5.267,3.27,5.267c2.709,0,3.64-2.589,3.64-5.54
	c0-3.011-0.979-5.274-3.588-5.274C115.17,282.75,114.373,285.72,114.373,288.297"/>
<path fill="#022169" d="M117.602,294.288c-2.915,0-5.085-2.541-5.085-5.991c0-3.751,2.259-6.232,5.291-6.232
	c1.377,0,2.569,0.808,3.337,1.619v-2.537c0.016-0.793-0.161-1.723-0.507-1.812c-0.229-0.105-0.37-0.105-0.407-0.322
	c0-0.194,0.177-0.282,0.257-0.33l2.075-0.753l0.224-0.06v11.152c0,2.698,0.23,3.965,0.568,4.211
	c0.145,0.177,0.266,0.205,0.298,0.419c0,0.129-0.153,0.294-0.326,0.294c-0.322,0-0.58-0.069-0.789-0.069
	c-0.249,0-0.507,0.049-0.966-0.068l-0.339-1.896c-0.846,1.506-2.049,2.375-3.619,2.375H117.602z M117.807,282.387
	c-2.802,0-4.944,2.286-4.964,5.91c0,3.334,2.065,5.649,4.759,5.649c1.57,0,2.726-0.93,3.559-2.589l0.221-0.492l0.109,0.499
	l0.242,2.259c0.222,0,0.484-0.077,0.806-0.1c0.257,0,0.491,0.072,0.729,0.1c-0.024-0.028-0.061-0.1-0.133-0.149
	c-0.539-0.475-0.668-1.727-0.68-4.453v-10.669l-1.816,0.633c0.027,0.027,0.072,0.027,0.124,0.052
	c0.685,0.297,0.705,1.304,0.729,2.109v3.487l-0.318-0.403c-0.672-0.846-1.949-1.844-3.349-1.844H117.807z M114.204,288.297
	c0-2.576,0.781-5.669,3.491-5.717c2.757,0.013,3.756,2.433,3.756,5.444c0,2.951-0.938,5.689-3.809,5.709
	C115.158,293.713,114.204,290.818,114.204,288.297 M117.642,293.418c2.545,0,3.454-2.464,3.462-5.395
	c-0.008-3.011-0.938-5.089-3.41-5.089c-2.339,0-3.149,2.786-3.16,5.362C114.545,290.77,115.524,293.418,117.642,293.418"/>
<path fill="#022169" d="M6.877,289.187c-0.611-1.035-1.538-2.533-2.705-2.533c-0.672,0-1.276,0.383-1.276,1.329v2.593
	c0,1.123,0.093,2.589,0.692,2.91c0.222,0.109,0.386,0.214,0.386,0.287c0,0.064-0.04,0.076-0.177,0.076
	c-0.329,0-0.821-0.069-1.65-0.069c-0.854,0-1.241,0.069-1.466,0.069c-0.181,0-0.282-0.012-0.282-0.076c0-0.061,0.1-0.15,0.362-0.267
	c0.427-0.225,0.62-1.836,0.62-2.931v-7.826c0-1.506-0.129-2.295-0.66-2.609c-0.084-0.032-0.125-0.121-0.125-0.185
	c0-0.024,0.069-0.101,0.201-0.101c0.133,0,0.681,0.09,1.349,0.09c0.402,0,0.829-0.09,1.228-0.09c0.137,0,0.173,0.077,0.173,0.129
	c0,0.086-0.097,0.185-0.258,0.246c-0.338,0.201-0.394,1.083-0.394,1.787v4.465l3.1-2.814c1.252-1.212,2.44-2.424,2.44-2.943
	c0-0.205-0.104-0.37-0.197-0.447c-0.105-0.109-0.209-0.149-0.209-0.258c0-0.113,0.132-0.165,0.285-0.165
	c0.346,0,0.693,0.09,1.023,0.09c0.467,0,0.951-0.09,1.393-0.09c0.491,0,0.673,0.077,0.673,0.165c0,0.121-0.447,0.274-0.934,0.548
	c-0.825,0.484-1.212,0.765-1.993,1.438l-4.428,4.102v0.06c2.962,0.125,3.494,0.636,5.072,3.47c0.705,1.301,1.61,2.911,2.73,3.675
	c0.358,0.251,0.615,0.346,0.615,0.46c0,0.037-0.117,0.076-0.214,0.076c-0.149,0-0.431-0.069-1.417-0.069
	c-0.435,0-1.119,0.069-1.341,0.069L6.877,289.187z"/>
<path fill="#022169" d="M10.835,293.926c-0.435,0-1.099,0.081-1.506,0l-2.617-4.661l0.165-0.077l0.149-0.089l2.468,4.585
	c0.201,0,0.885-0.061,1.341-0.061c0.709,0,1.075,0.037,1.264,0.037c-0.108-0.037-0.213-0.137-0.337-0.222
	c-1.176-0.808-2.082-2.435-2.795-3.732c-1.606-2.842-1.977-3.225-5.096-3.538l0.064-0.166l4.429-4.094
	c0.781-0.696,1.179-0.994,2.036-1.477c0.306-0.165,0.629-0.302,0.765-0.411H10.73c-0.426,0-0.905,0.089-1.393,0.109
	c-0.371-0.02-0.716-0.109-1.023-0.109H8.186c0.027,0,0.027,0,0.145,0.121c0.153,0.137,0.269,0.33,0.269,0.584
	c-0.036,0.684-1.231,1.807-2.48,3.032l-3.401,3.108v-4.847c0.04-0.733,0-1.602,0.483-1.908c0.089-0.056,0.129-0.065,0.141-0.089
	c-0.367,0-0.785,0.089-1.203,0.109c-0.588,0-1.108-0.085-1.293-0.109c0.608,0.435,0.697,1.265,0.705,2.73v7.826
	c-0.021,1.123-0.113,2.678-0.705,3.076c-0.032,0.008-0.06,0.008-0.085,0.032c0.218-0.024,0.62-0.061,1.378-0.061
	c0.692,0,1.151,0.037,1.461,0.037c-0.02,0-0.06-0.008-0.101-0.037c-0.733-0.438-0.741-1.904-0.781-3.047v-2.593
	c0-1.014,0.693-1.501,1.454-1.501c1.332,0.048,2.242,1.582,2.854,2.617l-0.149,0.089l-0.165,0.077
	c-0.58-1.035-1.542-2.472-2.54-2.44c-0.592,0.008-1.076,0.282-1.091,1.159v2.593c-0.041,1.111,0.157,2.589,0.58,2.762
	c0.25,0.137,0.427,0.149,0.483,0.435c0,0.173-0.233,0.233-0.346,0.233c-0.37,0-0.821-0.081-1.658-0.081
	c-0.826,0-1.208,0.081-1.458,0.081c-0.169-0.012-0.39,0.04-0.458-0.233c0.051-0.257,0.196-0.257,0.454-0.41
	c0.262-0.081,0.552-1.732,0.512-2.786v-7.826c0.032-1.506-0.125-2.231-0.552-2.464c-0.137-0.081-0.206-0.194-0.213-0.314
	c0.007-0.186,0.184-0.262,0.373-0.262c0.173,0,0.697,0.076,1.342,0.076c0.378,0,0.805-0.076,1.236-0.076
	c0.205,0,0.35,0.145,0.35,0.274c-0.025,0.221-0.185,0.302-0.342,0.399c-0.189,0.048-0.342,0.951-0.302,1.635v4.074l2.793-2.581
	c1.253-1.143,2.417-2.435,2.38-2.786c0-0.165-0.077-0.27-0.153-0.342c-0.057-0.097-0.218-0.105-0.258-0.363
	c0.02-0.261,0.31-0.31,0.47-0.31c0.37,0,0.721,0.076,1.023,0.076c0.454,0,0.926-0.076,1.393-0.076c0.491,0,0.769,0,0.862,0.31
	c-0.137,0.395-0.548,0.395-1.015,0.697c-0.854,0.447-1.207,0.744-1.977,1.437l-4.254,3.865c2.725,0.15,3.434,0.806,4.919,3.543
	c0.709,1.288,1.622,2.858,2.697,3.603c0.346,0.31,0.568,0.253,0.677,0.608c-0.084,0.274-0.262,0.185-0.387,0.233
	C12.071,294.007,11.822,293.926,10.835,293.926"/>
<path fill="#022169" d="M15.783,285.012h0.036c0.596-1.803,1.908-2.782,3.527-2.782c1.839,0,3.84,1.027,3.84,4.151v4.236
	c0,1.727,0.121,2.617,0.54,2.89c0.193,0.117,0.322,0.194,0.322,0.226c0,0.077-0.08,0.104-0.153,0.104
	c-0.201,0-0.862-0.056-1.429-0.056c-0.56,0-1.217,0.056-1.47,0.056c-0.06,0-0.117,0-0.117-0.104c0-0.109,0.169-0.137,0.306-0.226
	c0.484-0.402,0.576-1.163,0.576-1.876v-4.243c0-3.679-1.292-4.638-2.783-4.638c-1.9,0-3.196,2.13-3.196,4.67v3.341
	c0,1.582,0.085,2.315,0.633,2.745c0.169,0.117,0.317,0.205,0.317,0.267c0,0.064-0.055,0.064-0.148,0.064
	c-0.283,0-0.947-0.056-1.462-0.056c-0.523,0-1.167,0.056-1.477,0.056c-0.076,0-0.145-0.027-0.145-0.125
	c0-0.052,0.145-0.117,0.33-0.237c0.552-0.399,0.644-1.132,0.644-1.845v-11.426c0-0.548-0.145-1.042-0.644-1.159
	c-0.06-0.008-0.157-0.032-0.157-0.109c0-0.068,0.109-0.149,0.157-0.149l1.953-0.681V285.012z"/>
<path fill="#022169" d="M22.467,293.926c-0.561,0-1.18,0.068-1.47,0.068c-0.028,0-0.29-0.068-0.29-0.262
	c0.056-0.314,0.286-0.257,0.366-0.362c0.415-0.331,0.528-1.046,0.512-1.747v-4.236c-0.012-3.651-1.221-4.445-2.605-4.452
	c-1.739,0-3.016,1.993-3.039,4.5v3.326c0,1.582,0.101,2.254,0.579,2.609c0.161,0.153,0.29,0.117,0.379,0.402
	c0,0.186-0.274,0.222-0.314,0.222c-0.301,0-0.967-0.068-1.462-0.068c-0.507,0-1.168,0.068-1.477,0.068
	c-0.084,0-0.322-0.068-0.322-0.282c0.073-0.294,0.245-0.237,0.415-0.374c0.467-0.338,0.559-1.014,0.551-1.715v-11.418
	c0-0.548-0.124-0.918-0.499-0.995c-0.045-0.02-0.282-0.049-0.29-0.274c0.069-0.245,0.133-0.253,0.27-0.301l2.17-0.765v6.374
	c0.708-1.429,1.948-2.186,3.386-2.178c1.916,0,4.014,1.143,4.034,4.316v4.235c-0.036,1.708,0.149,2.577,0.47,2.754
	c0.186,0.153,0.298,0.068,0.395,0.362c-0.024,0.262-0.249,0.242-0.33,0.262C23.666,293.995,23.034,293.926,22.467,293.926
	 M16.519,293.789l0.036-0.017h-0.004L16.519,293.789z M14.639,280.205v11.418c-0.008,0.721-0.093,1.513-0.709,1.973
	c-0.035,0.028-0.064,0.056-0.1,0.064c0.335,0,0.854-0.036,1.293-0.036c0.411,0,0.882,0.028,1.224,0.036
	c-0.011,0-0.041-0.008-0.045-0.036c-0.619-0.507-0.696-1.3-0.696-2.862v-3.326c0-2.585,1.32-4.823,3.373-4.855
	c1.602,0.012,2.952,1.102,2.952,4.806v4.236c0,0.721-0.069,1.53-0.644,2.001c-0.024,0.028-0.045,0.036-0.077,0.036
	c0.314-0.008,0.822-0.036,1.257-0.036c0.426,0,0.905,0.028,1.199,0.036c0,0-0.008-0.008-0.016-0.008
	c-0.576-0.399-0.624-1.308-0.636-3.036v-4.235c-0.012-3.028-1.9-3.986-3.688-3.994c-1.422,0-2.633,0.821-3.386,2.52v0.105h-0.045
	c-0.027,0.063-0.04,0.136-0.075,0.168h-0.036v-0.168h-0.177l-0.009-6.659l-1.642,0.571C14.515,279.114,14.639,279.69,14.639,280.205
	"/>
<path fill="#022169" d="M34.838,290.557c0,1.356,0.137,2.757,0.616,2.951c0.097,0.056,0.157,0.089,0.157,0.153
	c0,0.113-0.085,0.177-0.173,0.177c-0.064,0-0.491-0.056-0.685-0.056c-0.229,0-0.467,0.056-0.652,0.056
	c-0.145,0-0.214-0.125-0.214-0.177c0-0.544-0.245-1.433-0.298-2.029h-0.049c-0.756,1.856-2.085,2.48-3.72,2.48
	c-1.715,0-3.768-1.111-3.768-3.478c0-3.294,4.042-3.768,6.035-3.768h1.333c0-2.553-0.576-4.115-2.814-4.115
	c-1.241,0-3.246,0.822-3.391,2.548c0,0-0.04,0.061-0.104,0.061c-0.02,0-0.045,0-0.073-0.049l-0.466-2.053
	c1.376-0.752,2.813-1.026,3.973-1.026c3.222,0,4.292,1.703,4.292,4.199V290.557z M32.117,287.387c-1.876,0-4.356,0.435-4.356,3.306
	c0,1.896,1.196,2.87,2.617,2.87c2.657,0,3.043-2.588,3.043-5.234v-0.943H32.117z"/>
<path fill="#022169" d="M29.822,294.288c-1.791-0.02-3.934-1.183-3.934-3.656c0.028-3.458,4.206-3.938,6.2-3.953l1.168,0.185
	c-0.041-2.553-0.548-3.93-2.649-3.93c-1.184,0-3.108,0.781-3.222,2.344c0,0.145-0.165,0.266-0.274,0.266
	c-0.032,0-0.233-0.068-0.233-0.185l-0.387-2.247c1.405-0.745,2.875-1.047,4.054-1.047c3.294,0,4.457,1.816,4.469,4.364v4.127
	c-0.04,1.341,0.21,2.758,0.536,2.807c0.097,0.056,0.226,0.145,0.226,0.297c0,0.189-0.157,0.334-0.339,0.334
	c-0.093,0-0.508-0.069-0.684-0.069c-0.21,0-0.431,0.069-0.652,0.069c-0.262-0.02-0.387-0.185-0.403-0.334
	c0-0.467-0.157-1.159-0.141-1.627c-0.798,1.627-2.146,2.255-3.712,2.255H29.822z M26.247,290.632c0,2.279,1.936,3.293,3.575,3.314
	c1.59-0.021,2.831-0.584,3.72-2.492l0.225,0.17c0.049,0.571,0.297,1.453,0.297,2.036h0.037c0.156,0,0.394-0.036,0.652-0.036
	c0.193,0,0.564,0.036,0.657,0.036h-0.036c-0.657-0.358-0.673-1.747-0.701-3.104v-4.127c-0.032-2.46-0.978-4.034-4.127-4.042
	c-1.123,0-2.54,0.29-3.804,0.822l0.369,1.642c0.435-1.546,2.299-2.27,3.495-2.27c2.359,0,2.983,1.731,2.814,4.428h-1.333
	C30.095,287.009,26.247,287.524,26.247,290.632 M27.579,290.693c0.012-2.992,2.662-3.47,4.538-3.49v0.185v0.15
	c-1.856,0.028-4.191,0.422-4.191,3.156c0.008,1.856,1.111,2.726,2.451,2.726c2.481,0,2.855-2.432,2.879-5.089l0.165-0.792h-1.304
	v-0.15v-0.185l1.473,0.185v0.942c0,2.625-0.375,5.383-3.213,5.404C28.867,293.733,27.591,292.654,27.579,290.693"/>
<path fill="#022169" d="M40.1,290.633c0,1.28,0.101,2.532,0.66,2.842c0.185,0.089,0.375,0.149,0.375,0.258
	c0,0.077-0.231,0.105-0.298,0.105c-0.209,0-0.874-0.056-1.381-0.056c-0.519,0-1.18,0.056-1.474,0.056
	c-0.326,0-0.383-0.028-0.383-0.105c0-0.109,0.218-0.169,0.483-0.314c0.629-0.342,0.717-2.23,0.717-4.476v-7.698
	c0-1.586-0.137-2.081-0.624-2.294c-0.124-0.032-0.181-0.08-0.181-0.129c0-0.068,0.097-0.129,0.17-0.137l1.936-0.576V290.633z"/>
<path fill="#022169" d="M39.444,293.947c-0.508,0-1.143,0.048-1.462,0.048c-0.278,0-0.507,0-0.556-0.262
	c0.073-0.314,0.342-0.314,0.556-0.451c0.479-0.177,0.681-2.102,0.635-4.34v-7.678c0-1.622-0.157-2.013-0.507-2.15
	c-0.117-0.077-0.249-0.077-0.294-0.294c0.045-0.234,0.226-0.242,0.294-0.282l2.17-0.669v12.763c-0.017,1.265,0.137,2.52,0.567,2.682
	c0.145,0.105,0.394,0.125,0.443,0.419c-0.137,0.262-0.346,0.214-0.455,0.262C40.599,293.995,39.951,293.947,39.444,293.947
	 M38.977,281.264v7.678c-0.04,2.259-0.04,4.099-0.822,4.622c-0.072,0.032-0.144,0.059-0.209,0.097h0.037
	c0.289,0,0.938-0.037,1.462-0.037c0.519,0,1.183,0.037,1.372,0.037c-0.032-0.008-0.08-0.037-0.137-0.065
	c-0.716-0.411-0.728-1.684-0.756-2.964v-12.312l-1.631,0.499C38.848,279.114,38.977,279.709,38.977,281.264"/>
<path fill="#022169" d="M45.555,289.932c0,2.412,0.33,3.487,0.749,3.632c0.144,0.032,0.289,0.06,0.289,0.169
	c0,0.076-0.145,0.105-0.224,0.105c-0.286,0-0.951-0.057-1.458-0.057c-0.902,0-1.28,0.057-1.461,0.057c-0.085,0-0.145,0-0.145-0.105
	c0-0.109,0.121-0.169,0.306-0.246c0.588-0.35,0.649-1.143,0.649-3.08v-6.301c0-0.439-0.31-0.508-0.584-0.713
	c-0.097-0.041-0.165-0.041-0.165-0.137c0-0.049,0.056-0.049,0.121-0.08l1.925-0.644V289.932z M45.737,279.907
	c0,0.653-0.439,1.055-0.826,1.055c-0.394,0-0.833-0.402-0.833-1.055c0-0.656,0.439-1.039,0.833-1.039
	C45.298,278.868,45.737,279.251,45.737,279.907"/>
<path fill="#022169" d="M44.912,293.946c-0.903,0-1.261,0.028-1.462,0.049c-0.06,0-0.326-0.069-0.326-0.262
	c0.041-0.246,0.242-0.314,0.378-0.383c0.491-0.245,0.596-0.986,0.576-2.943v-6.301c0-0.351-0.169-0.351-0.471-0.568
	c-0.069-0.028-0.242-0.041-0.253-0.282c0-0.169,0.184-0.246,0.225-0.246l2.158-0.692v7.613c-0.028,2.392,0.387,3.478,0.608,3.487
	c0.121,0.02,0.387,0.02,0.423,0.314c-0.068,0.29-0.302,0.225-0.398,0.262C46.054,293.995,45.41,293.946,44.912,293.946
	 M46.139,293.66c-0.524-0.379-0.721-1.466-0.737-3.728l-0.02-7.167l-1.583,0.508c0.218,0.169,0.632,0.298,0.632,0.834v6.301
	c-0.012,1.916-0.028,2.778-0.757,3.217c-0.024,0.028-0.044,0.036-0.065,0.036c0.218-0.008,0.612-0.036,1.301-0.036
	C45.315,293.624,45.805,293.652,46.139,293.66 M43.909,279.907c0-0.717,0.495-1.215,1.003-1.215c0.507,0,0.998,0.498,0.998,1.215
	c0,0.721-0.491,1.208-0.998,1.208C44.404,281.115,43.909,280.628,43.909,279.907 M44.243,279.907c0,0.564,0.395,0.878,0.669,0.878
	c0.257,0,0.643-0.314,0.643-0.878c0-0.572-0.387-0.893-0.643-0.893C44.638,279.014,44.243,279.335,44.243,279.907"/>
<path fill="#022169" d="M48.475,283.209h1.32v-1.055c0-2.717,2.045-3.688,3.974-4.045l-0.46,1.823
	c-0.258-0.386-0.635-0.809-1.211-0.809c-0.515,0-1.007,0.587-1.007,1.437v2.649h1.643l-0.141,0.527h-1.502v5.166
	c0,2.367,0.201,3.989,0.701,4.469c0.145,0.193,0.415,0.253,0.415,0.362c0,0.077-0.073,0.104-0.177,0.104
	c-0.105,0-0.467-0.056-1.59-0.056c-0.512,0-1.006,0.056-1.257,0.056c-0.149,0-0.185-0.027-0.185-0.063
	c0-0.072,0.121-0.114,0.25-0.258c0.454-0.439,0.547-1.172,0.547-1.885v-7.895h-1.442L48.475,283.209z"/>
<path fill="#022169" d="M50.439,293.947c-0.499,0-0.983,0.049-1.256,0.049c-0.117,0-0.334-0.021-0.363-0.222
	c0.065-0.266,0.205-0.226,0.298-0.355c0.395-0.403,0.5-1.095,0.5-1.795l0.177-7.742H48.14l0.044-0.197l0.129-0.508l0.161,0.032
	v-0.197l1.144,0.197v-1.055c-0.028-2.818,2.154-3.861,4.118-4.223l0.282-0.028l-0.088,0.253l-0.571,2.187l-0.194-0.36
	c-0.249-0.341-0.596-0.704-1.066-0.704c-0.371,0-0.834,0.479-0.834,1.28l-0.173,2.452h1.832l-0.036,0.214l-0.294,0.656l-1.328-0.145
	v5.165c-0.012,2.36,0.217,3.99,0.644,4.352c0.105,0.165,0.37,0.165,0.483,0.479c-0.024,0.214-0.257,0.262-0.362,0.262
	C51.885,293.995,51.562,293.947,50.439,293.947 M48.563,283.571l1.382,0.165v7.887c0,0.72-0.069,1.494-0.576,2
	c-0.016,0.029-0.028,0.037-0.04,0.037c0.262,0,0.684-0.037,1.111-0.037c0.785,0,1.196,0.029,1.421,0.037
	c-0.06-0.037-0.133-0.097-0.225-0.174c-0.552-0.595-0.688-2.197-0.717-4.585l0.173-5.342l1.345,0.125l0.064-0.33l-1.582-0.145
	v-2.649c0-0.901,0.512-1.594,1.18-1.594c0.511,0,0.881,0.266,1.131,0.58l0.302-1.224c-1.804,0.371-3.567,1.337-3.587,3.833
	l-0.149,1.22h-1.176L48.563,283.571z"/>
<path fill="#022169" d="M63.894,290.557c0,1.356,0.141,2.757,0.619,2.951c0.073,0.056,0.121,0.089,0.121,0.153
	c0,0.113-0.076,0.177-0.149,0.177c-0.069,0-0.491-0.056-0.684-0.056c-0.23,0-0.471,0.056-0.653,0.056
	c-0.149,0-0.213-0.125-0.213-0.177c0-0.544-0.25-1.433-0.322-2.029h-0.012c-0.768,1.856-2.105,2.48-3.732,2.48
	c-1.707,0-3.772-1.111-3.772-3.478c0-3.294,4.034-3.768,6.039-3.768h1.328c0-2.553-0.575-4.115-2.818-4.115
	c-1.237,0-3.233,0.822-3.394,2.548c0,0-0.041,0.061-0.098,0.061c-0.031,0-0.04,0-0.069-0.049l-0.479-2.053
	c1.389-0.752,2.842-1.026,3.994-1.026c3.212,0,4.292,1.703,4.292,4.199V290.557z M61.177,287.387c-1.892,0-4.389,0.435-4.389,3.306
	c0,1.896,1.208,2.87,2.641,2.87c2.653,0,3.035-2.588,3.035-5.234v-0.943H61.177z"/>
<path fill="#022169" d="M58.87,294.288c-1.787-0.02-3.945-1.183-3.945-3.656c0.036-3.458,4.207-3.938,6.212-3.953l1.155,0.185
	c-0.024-2.553-0.536-3.93-2.653-3.93c-1.168,0-3.088,0.781-3.225,2.344c0,0.145-0.149,0.266-0.245,0.266
	c-0.045,0-0.251-0.097-0.251-0.185l-0.386-2.247c1.405-0.745,2.878-1.047,4.07-1.047c3.289,0,4.448,1.816,4.448,4.364v4.127
	c-0.016,1.341,0.221,2.758,0.536,2.807c0.109,0.056,0.225,0.153,0.225,0.297c0,0.189-0.133,0.334-0.326,0.334
	c-0.109,0-0.518-0.069-0.685-0.069c-0.209,0-0.442,0.069-0.652,0.069c-0.258-0.02-0.395-0.185-0.395-0.334
	c0-0.426-0.177-1.111-0.153-1.61c-0.809,1.61-2.174,2.238-3.712,2.238H58.87z M55.275,290.632c0,2.279,1.956,3.293,3.595,3.314
	c1.558-0.021,2.831-0.584,3.72-2.492l0.194,0.17c0.069,0.556,0.318,1.453,0.318,2.036h0.049c0.157,0,0.391-0.036,0.652-0.036
	c0.166,0,0.524,0.036,0.636,0.036c0,0-0.008-0.007,0,0c-0.673-0.358-0.692-1.747-0.737-3.104v-4.127
	c-0.023-2.46-0.974-4.034-4.098-4.042c-1.12,0-2.544,0.29-3.82,0.822l0.373,1.642c0.439-1.554,2.295-2.27,3.483-2.27
	c2.375,0,3.003,1.731,2.826,4.428h-1.328C59.132,287.009,55.291,287.524,55.275,290.632 M56.623,290.693
	c0.016-2.992,2.662-3.47,4.538-3.49v0.185v0.15c-1.876,0.028-4.191,0.422-4.191,3.156c0.012,1.856,1.115,2.726,2.46,2.726
	c2.476,0,2.862-2.432,2.862-5.089l0.173-0.792h-1.304v-0.15v-0.185l1.481,0.185v0.942c0,2.625-0.387,5.383-3.212,5.404
	C57.911,293.733,56.639,292.654,56.623,290.693"/>
</svg>
